<svg version="1.1" xmlns="http://www.w3.org/2000/svg" xmlns:xlink="http://www.w3.org/1999/xlink" width="686.244140625" height="499"><defs/><g><g transform="translate(-30,10) scale(1,1)"><rect fill="#C0C0C0" stroke="none" x="399" y="247" width="27.5966796875" height="15" opacity="0.2"/></g><g transform="translate(-30,10) scale(1,1)"><rect fill="#C0C0C0" stroke="none" x="399" y="261" width="68.99169921875" height="25" opacity="0.2"/></g><g transform="translate(-30,10) scale(1,1)"><rect fill="#ff5656" stroke="none" x="392" y="255" width="68.99169921875" height="24"/></g><g transform="translate(-30,10) scale(1,1)"><path fill="none" stroke="#000000" d="M 392 255 L 460.99169921875 255 L 460.99169921875 279 L 392 279 L 392 255 Z Z" stroke-miterlimit="10"/></g><g transform="translate(-30,10) scale(1,1)"><rect fill="#ff5656" stroke="none" x="392" y="240" width="27.5966796875" height="15"/></g><g transform="translate(-30,10) scale(1,1)"><path fill="none" stroke="#000000" d="M 392 240 L 419.5966796875 240 L 419.5966796875 255 L 392 255 L 392 240 Z Z" stroke-miterlimit="10"/></g><g transform="translate(-30,10) scale(1,1)"><rect fill="#ff5656" stroke="none" x="392" y="254" width="68.99169921875" height="25"/></g><g transform="translate(-30,10) scale(1,1)"><path fill="none" stroke="#000000" d="M 392 254 L 460.99169921875 254 L 460.99169921875 279 L 392 279 L 392 254 Z Z" stroke-miterlimit="10"/></g><g transform="translate(-30,10) scale(1,1)"><g><path fill="none" stroke="none"/><text fill="#000000" stroke="none" font-family="Arial" font-size="13px" font-style="normal" font-weight="bold" text-decoration="none" x="405.17724609375" y="274.5">Modèle</text></g></g><g transform="translate(-30,10) scale(1,1)"><rect fill="#C0C0C0" stroke="none" x="359" y="447" width="27.5966796875" height="15" opacity="0.2"/></g><g transform="translate(-30,10) scale(1,1)"><rect fill="#C0C0C0" stroke="none" x="359" y="461" width="68.99169921875" height="25" opacity="0.2"/></g><g transform="translate(-30,10) scale(1,1)"><rect fill="#38ff38" stroke="none" x="352" y="455" width="68.99169921875" height="24"/></g><g transform="translate(-30,10) scale(1,1)"><path fill="none" stroke="#000000" d="M 352 455 L 420.99169921875 455 L 420.99169921875 479 L 352 479 L 352 455 Z Z" stroke-miterlimit="10"/></g><g transform="translate(-30,10) scale(1,1)"><rect fill="#38ff38" stroke="none" x="352" y="440" width="27.5966796875" height="15"/></g><g transform="translate(-30,10) scale(1,1)"><path fill="none" stroke="#000000" d="M 352 440 L 379.5966796875 440 L 379.5966796875 455 L 352 455 L 352 440 Z Z" stroke-miterlimit="10"/></g><g transform="translate(-30,10) scale(1,1)"><rect fill="#38ff38" stroke="none" x="352" y="454" width="68.99169921875" height="25"/></g><g transform="translate(-30,10) scale(1,1)"><path fill="none" stroke="#000000" d="M 352 454 L 420.99169921875 454 L 420.99169921875 479 L 352 479 L 352 454 Z Z" stroke-miterlimit="10"/></g><g transform="translate(-30,10) scale(1,1)"><g><path fill="none" stroke="none"/><text fill="#000000" stroke="none" font-family="Arial" font-size="13px" font-style="normal" font-weight="bold" text-decoration="none" x="374.930419921875" y="474.5">App</text></g></g><g transform="translate(-30,10) scale(1,1)"><rect fill="#C0C0C0" stroke="none" x="439" y="63" width="30.481054687499977" height="15" opacity="0.2"/></g><g transform="translate(-30,10) scale(1,1)"><rect fill="#C0C0C0" stroke="none" x="439" y="77" width="76.20263671875" height="25" opacity="0.2"/></g><g transform="translate(-30,10) scale(1,1)"><rect fill="#ffff49" stroke="none" x="432" y="71" width="76.20263671875" height="24"/></g><g transform="translate(-30,10) scale(1,1)"><path fill="none" stroke="#000000" d="M 432 71 L 508.20263671875 71 L 508.20263671875 95 L 432 95 L 432 71 Z Z" stroke-miterlimit="10"/></g><g transform="translate(-30,10) scale(1,1)"><rect fill="#ffff49" stroke="none" x="432" y="56" width="30.481054687499977" height="15"/></g><g transform="translate(-30,10) scale(1,1)"><path fill="none" stroke="#000000" d="M 432 56 L 462.4810546875 56 L 462.4810546875 71 L 432 71 L 432 56 Z Z" stroke-miterlimit="10"/></g><g transform="translate(-30,10) scale(1,1)"><rect fill="#ffff49" stroke="none" x="432" y="70" width="76.20263671875" height="25"/></g><g transform="translate(-30,10) scale(1,1)"><path fill="none" stroke="#000000" d="M 432 70 L 508.20263671875 70 L 508.20263671875 95 L 432 95 L 432 70 Z Z" stroke-miterlimit="10"/></g><g transform="translate(-30,10) scale(1,1)"><g><path fill="none" stroke="none"/><text fill="#000000" stroke="none" font-family="Arial" font-size="13px" font-style="normal" font-weight="bold" text-decoration="none" x="438.661376953125" y="90.5">executable</text></g></g><g transform="translate(-30,10) scale(1,1)"><rect fill="#C0C0C0" stroke="none" x="599" y="151" width="45.69765625000002" height="15" opacity="0.2"/></g><g transform="translate(-30,10) scale(1,1)"><rect fill="#C0C0C0" stroke="none" x="599" y="165" width="114.244140625" height="25" opacity="0.2"/></g><g transform="translate(-30,10) scale(1,1)"><rect fill="#ffff49" stroke="none" x="592" y="159" width="114.244140625" height="24"/></g><g transform="translate(-30,10) scale(1,1)"><path fill="none" stroke="#000000" d="M 592 159 L 706.244140625 159 L 706.244140625 183 L 592 183 L 592 159 Z Z" stroke-miterlimit="10"/></g><g transform="translate(-30,10) scale(1,1)"><rect fill="#ffff49" stroke="none" x="592" y="144" width="45.69765625000002" height="15"/></g><g transform="translate(-30,10) scale(1,1)"><path fill="none" stroke="#000000" d="M 592 144 L 637.69765625 144 L 637.69765625 159 L 592 159 L 592 144 Z Z" stroke-miterlimit="10"/></g><g transform="translate(-30,10) scale(1,1)"><rect fill="#ffff49" stroke="none" x="592" y="158" width="114.244140625" height="25"/></g><g transform="translate(-30,10) scale(1,1)"><path fill="none" stroke="#000000" d="M 592 158 L 706.244140625 158 L 706.244140625 183 L 592 183 L 592 158 Z Z" stroke-miterlimit="10"/></g><g transform="translate(-30,10) scale(1,1)"><g><path fill="none" stroke="none"/><text fill="#000000" stroke="none" font-family="Arial" font-size="13px" font-style="normal" font-weight="bold" text-decoration="none" x="599.267578125" y="178.5">TestCreaElement</text></g></g><g transform="translate(-30,10) scale(1,1)"><rect fill="#C0C0C0" stroke="none" x="615" y="263" width="36.73476562500002" height="15" opacity="0.2"/></g><g transform="translate(-30,10) scale(1,1)"><rect fill="#C0C0C0" stroke="none" x="615" y="277" width="91.8369140625" height="25" opacity="0.2"/></g><g transform="translate(-30,10) scale(1,1)"><rect fill="#ffff49" stroke="none" x="608" y="271" width="91.8369140625" height="24"/></g><g transform="translate(-30,10) scale(1,1)"><path fill="none" stroke="#000000" d="M 608 271 L 699.8369140625 271 L 699.8369140625 295 L 608 295 L 608 271 Z Z" stroke-miterlimit="10"/></g><g transform="translate(-30,10) scale(1,1)"><rect fill="#ffff49" stroke="none" x="608" y="256" width="36.73476562500002" height="15"/></g><g transform="translate(-30,10) scale(1,1)"><path fill="none" stroke="#000000" d="M 608 256 L 644.734765625 256 L 644.734765625 271 L 608 271 L 608 256 Z Z" stroke-miterlimit="10"/></g><g transform="translate(-30,10) scale(1,1)"><rect fill="#ffff49" stroke="none" x="608" y="270" width="91.8369140625" height="25"/></g><g transform="translate(-30,10) scale(1,1)"><path fill="none" stroke="#000000" d="M 608 270 L 699.8369140625 270 L 699.8369140625 295 L 608 295 L 608 270 Z Z" stroke-miterlimit="10"/></g><g transform="translate(-30,10) scale(1,1)"><g><path fill="none" stroke="none"/><text fill="#000000" stroke="none" font-family="Arial" font-size="13px" font-style="normal" font-weight="bold" text-decoration="none" x="616.343505859375" y="290.5">TestManager</text></g></g><g transform="translate(-30,10) scale(1,1)"><rect fill="#C0C0C0" stroke="none" x="543" y="415" width="40.49765624999998" height="15" opacity="0.2"/></g><g transform="translate(-30,10) scale(1,1)"><rect fill="#C0C0C0" stroke="none" x="543" y="429" width="101.244140625" height="25" opacity="0.2"/></g><g transform="translate(-30,10) scale(1,1)"><rect fill="#ffff49" stroke="none" x="536" y="423" width="101.244140625" height="24"/></g><g transform="translate(-30,10) scale(1,1)"><path fill="none" stroke="#000000" d="M 536 423 L 637.244140625 423 L 637.244140625 447 L 536 447 L 536 423 Z Z" stroke-miterlimit="10"/></g><g transform="translate(-30,10) scale(1,1)"><rect fill="#ffff49" stroke="none" x="536" y="408" width="40.49765624999998" height="15"/></g><g transform="translate(-30,10) scale(1,1)"><path fill="none" stroke="#000000" d="M 536 408 L 576.49765625 408 L 576.49765625 423 L 536 423 L 536 408 Z Z" stroke-miterlimit="10"/></g><g transform="translate(-30,10) scale(1,1)"><rect fill="#ffff49" stroke="none" x="536" y="422" width="101.244140625" height="25"/></g><g transform="translate(-30,10) scale(1,1)"><path fill="none" stroke="#000000" d="M 536 422 L 637.244140625 422 L 637.244140625 447 L 536 447 L 536 422 Z Z" stroke-miterlimit="10"/></g><g transform="translate(-30,10) scale(1,1)"><g><path fill="none" stroke="none"/><text fill="#000000" stroke="none" font-family="Arial" font-size="13px" font-style="normal" font-weight="bold" text-decoration="none" x="543.267578125" y="442.5">TestRecherche</text></g></g><g transform="translate(-30,10) scale(1,1)"><rect fill="#C0C0C0" stroke="none" x="63" y="247" width="27.5966796875" height="15" opacity="0.2"/></g><g transform="translate(-30,10) scale(1,1)"><rect fill="#C0C0C0" stroke="none" x="63" y="261" width="68.99169921875" height="25" opacity="0.2"/></g><g transform="translate(-30,10) scale(1,1)"><rect fill="#ffff49" stroke="none" x="56" y="255" width="68.99169921875" height="24"/></g><g transform="translate(-30,10) scale(1,1)"><path fill="none" stroke="#000000" d="M 56 255 L 124.99169921875 255 L 124.99169921875 279 L 56 279 L 56 255 Z Z" stroke-miterlimit="10"/></g><g transform="translate(-30,10) scale(1,1)"><rect fill="#ffff49" stroke="none" x="56" y="240" width="27.5966796875" height="15"/></g><g transform="translate(-30,10) scale(1,1)"><path fill="none" stroke="#000000" d="M 56 240 L 83.5966796875 240 L 83.5966796875 255 L 56 255 L 56 240 Z Z" stroke-miterlimit="10"/></g><g transform="translate(-30,10) scale(1,1)"><rect fill="#ffff49" stroke="none" x="56" y="254" width="68.99169921875" height="25"/></g><g transform="translate(-30,10) scale(1,1)"><path fill="none" stroke="#000000" d="M 56 254 L 124.99169921875 254 L 124.99169921875 279 L 56 279 L 56 254 Z Z" stroke-miterlimit="10"/></g><g transform="translate(-30,10) scale(1,1)"><g><path fill="none" stroke="none"/><text fill="#000000" stroke="none" font-family="Arial" font-size="13px" font-style="normal" font-weight="bold" text-decoration="none" x="65.20361328125" y="274.5">TestStub</text></g></g><g transform="translate(-30,10) scale(1,1)"><rect fill="#C0C0C0" stroke="none" x="167" y="295" width="27.5966796875" height="15" opacity="0.2"/></g><g transform="translate(-30,10) scale(1,1)"><rect fill="#C0C0C0" stroke="none" x="167" y="309" width="68.99169921875" height="25" opacity="0.2"/></g><g transform="translate(-30,10) scale(1,1)"><rect fill="#38bcff" stroke="none" x="160" y="303" width="68.99169921875" height="24"/></g><g transform="translate(-30,10) scale(1,1)"><path fill="none" stroke="#000000" d="M 160 303 L 228.99169921875 303 L 228.99169921875 327 L 160 327 L 160 303 Z Z" stroke-miterlimit="10"/></g><g transform="translate(-30,10) scale(1,1)"><rect fill="#38bcff" stroke="none" x="160" y="288" width="27.5966796875" height="15"/></g><g transform="translate(-30,10) scale(1,1)"><path fill="none" stroke="#000000" d="M 160 288 L 187.5966796875 288 L 187.5966796875 303 L 160 303 L 160 288 Z Z" stroke-miterlimit="10"/></g><g transform="translate(-30,10) scale(1,1)"><rect fill="#38bcff" stroke="none" x="160" y="302" width="68.99169921875" height="25"/></g><g transform="translate(-30,10) scale(1,1)"><path fill="none" stroke="#000000" d="M 160 302 L 228.99169921875 302 L 228.99169921875 327 L 160 327 L 160 302 Z Z" stroke-miterlimit="10"/></g><g transform="translate(-30,10) scale(1,1)"><g><path fill="none" stroke="none"/><text fill="#000000" stroke="none" font-family="Arial" font-size="13px" font-style="normal" font-weight="bold" text-decoration="none" x="181.12451171875" y="322.5">Stub</text></g></g><g transform="translate(-30,10) scale(1,1)"><path fill="none" stroke="#000000" d="M 390 439 L 422 280" stroke-miterlimit="10" stroke-dasharray="3"/></g><g transform="translate(-30,10) scale(1,1)"><path fill="none" stroke="#000000" d="M 424.1216574799233 290.79345030738017 L 422 280 L 415.86811648666037 289.13236029615746" stroke-miterlimit="10"/></g><g transform="translate(-30,10) scale(1,1)"><path fill="none" stroke="#000000" d="M 465 96 L 431 239" stroke-miterlimit="10" stroke-dasharray="3"/></g><g transform="translate(-30,10) scale(1,1)"><path fill="none" stroke="#000000" d="M 429.25541611643035 228.13922530050507 L 431 239 L 437.44612034453127 230.08666546662698" stroke-miterlimit="10"/></g><g transform="translate(-30,10) scale(1,1)"><path fill="none" stroke="#000000" d="M 600 184 L 462 244" stroke-miterlimit="10" stroke-dasharray="3"/></g><g transform="translate(-30,10) scale(1,1)"><path fill="none" stroke="#000000" d="M 469.64144015757836 236.08745348714154 L 462 244 L 472.9983294491511 243.8082988577587" stroke-miterlimit="10"/></g><g transform="translate(-30,10) scale(1,1)"><path fill="none" stroke="#000000" d="M 607 272 L 462 262" stroke-miterlimit="10" stroke-dasharray="3"/></g><g transform="translate(-30,10) scale(1,1)"><path fill="none" stroke="#000000" d="M 472.42821628217354 258.49967070517494 L 462 262 L 471.8489690295616 266.89875586804817" stroke-miterlimit="10"/></g><g transform="translate(-30,10) scale(1,1)"><path fill="none" stroke="#000000" d="M 567 407 L 446 280" stroke-miterlimit="10" stroke-dasharray="3"/></g><g transform="translate(-30,10) scale(1,1)"><path fill="none" stroke="#000000" d="M 456.0578885359195 284.4540855626064 L 446 280 L 449.96248708286305 290.2615152934712" stroke-miterlimit="10"/></g><g transform="translate(-30,10) scale(1,1)"><path fill="none" stroke="#000000" d="M 126 259 L 391 259" stroke-miterlimit="10" stroke-dasharray="3"/></g><g transform="translate(-30,10) scale(1,1)"><path fill="none" stroke="#000000" d="M 380.83732514237585 263.209517756016 L 391 259 L 380.83732514237585 254.790482243984" stroke-miterlimit="10"/></g><g transform="translate(-30,10) scale(1,1)"><path fill="none" stroke="#000000" d="M 126 276 L 159 291" stroke-miterlimit="10" stroke-dasharray="3"/></g><g transform="translate(-30,10) scale(1,1)"><path fill="none" stroke="#000000" d="M 148.0063306467394 290.62685907330007 L 159 291 L 151.49015232979445 282.96245137057895" stroke-miterlimit="10"/></g><g transform="translate(-30,10) scale(1,1)"><path fill="none" stroke="#000000" d="M 230 300 L 391 266" stroke-miterlimit="10" stroke-dasharray="3"/></g><g transform="translate(-30,10) scale(1,1)"><path fill="none" stroke="#000000" d="M 381.9264123606885 272.21852131553266 L 391 266 L 380.1868460593862 263.98116324171866" stroke-miterlimit="10"/></g><g transform="translate(-30,10) scale(1,1)"><rect fill="#C0C0C0" stroke="none" x="159" y="135" width="27.5966796875" height="15" opacity="0.2"/></g><g transform="translate(-30,10) scale(1,1)"><rect fill="#C0C0C0" stroke="none" x="159" y="149" width="68.99169921875" height="25" opacity="0.2"/></g><g transform="translate(-30,10) scale(1,1)"><rect fill="#38bcff" stroke="none" x="152" y="143" width="68.99169921875" height="24"/></g><g transform="translate(-30,10) scale(1,1)"><path fill="none" stroke="#000000" d="M 152 143 L 220.99169921875 143 L 220.99169921875 167 L 152 167 L 152 143 Z Z" stroke-miterlimit="10"/></g><g transform="translate(-30,10) scale(1,1)"><rect fill="#38bcff" stroke="none" x="152" y="128" width="27.5966796875" height="15"/></g><g transform="translate(-30,10) scale(1,1)"><path fill="none" stroke="#000000" d="M 152 128 L 179.5966796875 128 L 179.5966796875 143 L 152 143 L 152 128 Z Z" stroke-miterlimit="10"/></g><g transform="translate(-30,10) scale(1,1)"><rect fill="#38bcff" stroke="none" x="152" y="142" width="68.99169921875" height="25"/></g><g transform="translate(-30,10) scale(1,1)"><path fill="none" stroke="#000000" d="M 152 142 L 220.99169921875 142 L 220.99169921875 167 L 152 167 L 152 142 Z Z" stroke-miterlimit="10"/></g><g transform="translate(-30,10) scale(1,1)"><g><path fill="none" stroke="none"/><text fill="#000000" stroke="none" font-family="Arial" font-size="13px" font-style="normal" font-weight="bold" text-decoration="none" x="165.5517578125" y="162.5">XmlPM</text></g></g><g transform="translate(-30,10) scale(1,1)"><rect fill="#C0C0C0" stroke="none" x="47" y="143" width="31.242773437500006" height="15" opacity="0.2"/></g><g transform="translate(-30,10) scale(1,1)"><rect fill="#C0C0C0" stroke="none" x="47" y="157" width="78.10693359375" height="25" opacity="0.2"/></g><g transform="translate(-30,10) scale(1,1)"><rect fill="#ffff49" stroke="none" x="40" y="151" width="78.10693359375" height="24"/></g><g transform="translate(-30,10) scale(1,1)"><path fill="none" stroke="#000000" d="M 40 151 L 118.10693359375 151 L 118.10693359375 175 L 40 175 L 40 151 Z Z" stroke-miterlimit="10"/></g><g transform="translate(-30,10) scale(1,1)"><rect fill="#ffff49" stroke="none" x="40" y="136" width="31.242773437500006" height="15"/></g><g transform="translate(-30,10) scale(1,1)"><path fill="none" stroke="#000000" d="M 40 136 L 71.2427734375 136 L 71.2427734375 151 L 40 151 L 40 136 Z Z" stroke-miterlimit="10"/></g><g transform="translate(-30,10) scale(1,1)"><rect fill="#ffff49" stroke="none" x="40" y="150" width="78.10693359375" height="25"/></g><g transform="translate(-30,10) scale(1,1)"><path fill="none" stroke="#000000" d="M 40 150 L 118.10693359375 150 L 118.10693359375 175 L 40 175 L 40 150 Z Z" stroke-miterlimit="10"/></g><g transform="translate(-30,10) scale(1,1)"><g><path fill="none" stroke="none"/><text fill="#000000" stroke="none" font-family="Arial" font-size="13px" font-style="normal" font-weight="bold" text-decoration="none" x="46.1884765625" y="170.5">TestXmlPM</text></g></g><g transform="translate(-30,10) scale(1,1)"><rect fill="#C0C0C0" stroke="none" x="231" y="95" width="27.5966796875" height="15" opacity="0.2"/></g><g transform="translate(-30,10) scale(1,1)"><rect fill="#C0C0C0" stroke="none" x="231" y="109" width="68.99169921875" height="25" opacity="0.2"/></g><g transform="translate(-30,10) scale(1,1)"><rect fill="#38bcff" stroke="none" x="224" y="103" width="68.99169921875" height="24"/></g><g transform="translate(-30,10) scale(1,1)"><path fill="none" stroke="#000000" d="M 224 103 L 292.99169921875 103 L 292.99169921875 127 L 224 127 L 224 103 Z Z" stroke-miterlimit="10"/></g><g transform="translate(-30,10) scale(1,1)"><rect fill="#38bcff" stroke="none" x="224" y="88" width="27.5966796875" height="15"/></g><g transform="translate(-30,10) scale(1,1)"><path fill="none" stroke="#000000" d="M 224 88 L 251.5966796875 88 L 251.5966796875 103 L 224 103 L 224 88 Z Z" stroke-miterlimit="10"/></g><g transform="translate(-30,10) scale(1,1)"><rect fill="#38bcff" stroke="none" x="224" y="102" width="68.99169921875" height="25"/></g><g transform="translate(-30,10) scale(1,1)"><path fill="none" stroke="#000000" d="M 224 102 L 292.99169921875 102 L 292.99169921875 127 L 224 127 L 224 102 Z Z" stroke-miterlimit="10"/></g><g transform="translate(-30,10) scale(1,1)"><g><path fill="none" stroke="none"/><text fill="#000000" stroke="none" font-family="Arial" font-size="13px" font-style="normal" font-weight="bold" text-decoration="none" x="239.351318359375" y="122.5">BinPM</text></g></g><g transform="translate(-30,10) scale(1,1)"><rect fill="#C0C0C0" stroke="none" x="223" y="7" width="30.374414062499994" height="15" opacity="0.2"/></g><g transform="translate(-30,10) scale(1,1)"><rect fill="#C0C0C0" stroke="none" x="223" y="21" width="75.93603515625" height="25" opacity="0.2"/></g><g transform="translate(-30,10) scale(1,1)"><rect fill="#ffff49" stroke="none" x="216" y="15" width="75.93603515625" height="24"/></g><g transform="translate(-30,10) scale(1,1)"><path fill="none" stroke="#000000" d="M 216 15 L 291.93603515625 15 L 291.93603515625 39 L 216 39 L 216 15 Z Z" stroke-miterlimit="10"/></g><g transform="translate(-30,10) scale(1,1)"><rect fill="#ffff49" stroke="none" x="216" y="0" width="30.374414062499994" height="15"/></g><g transform="translate(-30,10) scale(1,1)"><path fill="none" stroke="#000000" d="M 216 0 L 246.3744140625 0 L 246.3744140625 15 L 216 15 L 216 0 Z Z" stroke-miterlimit="10"/></g><g transform="translate(-30,10) scale(1,1)"><rect fill="#ffff49" stroke="none" x="216" y="14" width="75.93603515625" height="25"/></g><g transform="translate(-30,10) scale(1,1)"><path fill="none" stroke="#000000" d="M 216 14 L 291.93603515625 14 L 291.93603515625 39 L 216 39 L 216 14 Z Z" stroke-miterlimit="10"/></g><g transform="translate(-30,10) scale(1,1)"><g><path fill="none" stroke="none"/><text fill="#000000" stroke="none" font-family="Arial" font-size="13px" font-style="normal" font-weight="bold" text-decoration="none" x="222.902587890625" y="34.5">TestBinPm</text></g></g><g transform="translate(-30,10) scale(1,1)"><path fill="none" stroke="#000000" d="M 119 167 L 391 249" stroke-miterlimit="10" stroke-dasharray="3"/></g><g transform="translate(-30,10) scale(1,1)"><path fill="none" stroke="#000000" d="M 380.05483747606314 250.09700379425442 L 391 249 L 382.4849025362307 242.03630018004006" stroke-miterlimit="10"/></g><g transform="translate(-30,10) scale(1,1)"><path fill="none" stroke="#000000" d="M 222 164 L 391 243" stroke-miterlimit="10" stroke-dasharray="3"/></g><g transform="translate(-30,10) scale(1,1)"><path fill="none" stroke="#000000" d="M 380.0109266749755 242.50982915505327 L 391 243 L 383.5761548613208 234.88294860451722" stroke-miterlimit="10"/></g><g transform="translate(-30,10) scale(1,1)"><path fill="none" stroke="#000000" d="M 281 128 L 404 239" stroke-miterlimit="10" stroke-dasharray="3"/></g><g transform="translate(-30,10) scale(1,1)"><path fill="none" stroke="#000000" d="M 393.6350725839661 235.31648542009825 L 404 239 L 399.27552767566414 229.06625139956802" stroke-miterlimit="10"/></g><g transform="translate(-30,10) scale(1,1)"><path fill="none" stroke="#000000" d="M 268 40 L 412 239" stroke-miterlimit="10" stroke-dasharray="3"/></g><g transform="translate(-30,10) scale(1,1)"><path fill="none" stroke="#000000" d="M 402.6319918031794 233.23454924361485 L 412 239 L 409.45260720425404 228.29902855137996" stroke-miterlimit="10"/></g><g transform="translate(-30,10) scale(1,1)"><path fill="none" stroke="#000000" d="M 119 152 L 151 150" stroke-miterlimit="10" stroke-dasharray="3"/></g><g transform="translate(-30,10) scale(1,1)"><path fill="none" stroke="#000000" d="M 141.11969865722506 154.8352502909322 L 151 150 L 140.5945336509049 146.43261018980968" stroke-miterlimit="10"/></g><g transform="translate(-30,10) scale(1,1)"><path fill="none" stroke="#000000" d="M 254 40 L 257 87" stroke-miterlimit="10" stroke-dasharray="3"/></g><g transform="translate(-30,10) scale(1,1)"><path fill="none" stroke="#000000" d="M 252.15166746995794 77.1261116231681 L 257 87 L 260.5536046184968 76.58981776262307" stroke-miterlimit="10"/></g><g transform="translate(-30,10) scale(1,1)"><path fill="none" stroke="#000000" d="M 361 439 L 221 328" stroke-miterlimit="10" stroke-dasharray="3"/></g><g transform="translate(-30,10) scale(1,1)"><path fill="none" stroke="#000000" d="M 231.57866031800228 331.01528537228637 L 221 328 L 226.34811371277215 337.61237118068476" stroke-miterlimit="10"/></g><g transform="translate(-30,10) scale(1,1)"><path fill="none" stroke="#000000" d="M 373 439 L 199 168" stroke-miterlimit="10" stroke-dasharray="3"/></g><g transform="translate(-30,10) scale(1,1)"><path fill="none" stroke="#000000" d="M 208.03298727784153 174.27735141905828 L 199 168 L 200.94852880222643 178.82604431484066" stroke-miterlimit="10"/></g><g transform="translate(-30,10) scale(1,1)"><path fill="none" stroke="#000000" d="M 379 439 L 266 128" stroke-miterlimit="10" stroke-dasharray="3"/></g><g transform="translate(-30,10) scale(1,1)"><path fill="none" stroke="#000000" d="M 273.42700592785246 136.11415941103232 L 266 128 L 265.51410911232756 138.98926339866676" stroke-miterlimit="10"/></g></g></svg>