<svg version="1.1" xmlns="http://www.w3.org/2000/svg" xmlns:xlink="http://www.w3.org/1999/xlink" width="2269.9404296875" height="989"><defs/><g><g transform="translate(-486,-254) scale(1,1)"><rect fill="#C0C0C0" stroke="none" x="751" y="615" width="495.63037109375" height="147" opacity="0.2"/></g><g transform="translate(-486,-254) scale(1,1)"><rect fill="#ffffff" stroke="none" x="744" y="608" width="495.63037109375" height="147"/></g><g transform="translate(-486,-254) scale(1,1)"><path fill="none" stroke="#000000" d="M 744 608 L 1239.63037109375 608 L 1239.63037109375 755 L 744 755 L 744 608 Z Z" stroke-miterlimit="10"/></g><g transform="translate(-486,-254) scale(1,1)"><path fill="none" stroke="#000000" d="M 744 633 L 1239.63037109375 633" stroke-miterlimit="10"/></g><g transform="translate(-486,-254) scale(1,1)"><path fill="none" stroke="#000000" d="M 744 643 L 1239.63037109375 643" stroke-miterlimit="10"/></g><g transform="translate(-486,-254) scale(1,1)"><g><path fill="none" stroke="none"/><text fill="#000000" stroke="none" font-family="Arial" font-size="13px" font-style="normal" font-weight="bold" text-decoration="none" x="962.546142578125" y="627.5">Manageur</text></g></g><g transform="translate(-486,-254) scale(1,1)"><g><path fill="none" stroke="none"/><text fill="#000000" stroke="none" font-family="Arial" font-size="13px" font-style="normal" font-weight="normal" text-decoration="none" x="749" y="660.5">+ChargeDonnées()</text></g></g><g transform="translate(-486,-254) scale(1,1)"><g><path fill="none" stroke="none"/><text fill="#000000" stroke="none" font-family="Arial" font-size="13px" font-style="normal" font-weight="normal" text-decoration="none" x="749" y="675.5">+AjoutCocktail(c: Cocktail)</text></g></g><g transform="translate(-486,-254) scale(1,1)"><g><path fill="none" stroke="none"/><text fill="#000000" stroke="none" font-family="Arial" font-size="13px" font-style="normal" font-weight="normal" text-decoration="none" x="749" y="690.5">+AjoutCocktailFav(c: Cocktail)</text></g></g><g transform="translate(-486,-254) scale(1,1)"><g><path fill="none" stroke="none"/><text fill="#000000" stroke="none" font-family="Arial" font-size="13px" font-style="normal" font-weight="normal" text-decoration="none" x="749" y="705.5">+AjoutCocktailCrea(c: Cocktail)</text></g></g><g transform="translate(-486,-254) scale(1,1)"><g><path fill="none" stroke="none"/><text fill="#000000" stroke="none" font-family="Arial" font-size="13px" font-style="normal" font-weight="normal" text-decoration="none" x="749" y="720.5">+SuppCreation(c: Cocktail)</text></g></g><g transform="translate(-486,-254) scale(1,1)"><g><path fill="none" stroke="none"/><text fill="#000000" stroke="none" font-family="Arial" font-size="13px" font-style="normal" font-weight="normal" text-decoration="none" x="749" y="735.5">+RechercheCocktail(motCle: string, recherche: IRecherche): IEnumerable&lt;Cocktail&gt;</text></g></g><g transform="translate(-486,-254) scale(1,1)"><g><path fill="none" stroke="none"/><text fill="#000000" stroke="none" font-family="Arial" font-size="13px" font-style="normal" font-weight="normal" text-decoration="none" x="749" y="750.5">-TriList()</text></g></g><g transform="translate(-486,-254) scale(1,1)"><rect fill="#C0C0C0" stroke="none" x="879" y="1095" width="179.8916015625" height="115" opacity="0.2"/></g><g transform="translate(-486,-254) scale(1,1)"><rect fill="#ffffff" stroke="none" x="872" y="1088" width="179.8916015625" height="115"/></g><g transform="translate(-486,-254) scale(1,1)"><path fill="none" stroke="#000000" d="M 872 1088 L 1051.8916015625 1088 L 1051.8916015625 1203 L 872 1203 L 872 1088 Z Z" stroke-miterlimit="10"/></g><g transform="translate(-486,-254) scale(1,1)"><path fill="none" stroke="#000000" d="M 872 1113 L 1051.8916015625 1113" stroke-miterlimit="10"/></g><g transform="translate(-486,-254) scale(1,1)"><path fill="none" stroke="#000000" d="M 872 1151 L 1051.8916015625 1151" stroke-miterlimit="10"/></g><g transform="translate(-486,-254) scale(1,1)"><g><path fill="none" stroke="none"/><text fill="#000000" stroke="none" font-family="Arial" font-size="13px" font-style="normal" font-weight="bold" text-decoration="none" x="938.82763671875" y="1107.5">Cocktail</text></g></g><g transform="translate(-486,-254) scale(1,1)"><g><path fill="none" stroke="none"/><text fill="#000000" stroke="none" font-family="Arial" font-size="13px" font-style="normal" font-weight="normal" text-decoration="none" x="877" y="1130.5">+/Nom: string</text></g></g><g transform="translate(-486,-254) scale(1,1)"><g><path fill="none" stroke="none"/><text fill="#000000" stroke="none" font-family="Arial" font-size="13px" font-style="normal" font-weight="normal" text-decoration="none" x="877" y="1145.5">+/Image: String</text></g></g><g transform="translate(-486,-254) scale(1,1)"><g><path fill="none" stroke="none"/><text fill="#000000" stroke="none" font-family="Arial" font-size="13px" font-style="normal" font-weight="normal" text-decoration="none" x="877" y="1168.5">+AjoutRecette(r: Recette)</text></g></g><g transform="translate(-486,-254) scale(1,1)"><g><path fill="none" stroke="none"/><text fill="#000000" stroke="none" font-family="Arial" font-size="13px" font-style="normal" font-weight="normal" text-decoration="none" x="877" y="1183.5">+Equals(right: Object): bool</text></g></g><g transform="translate(-486,-254) scale(1,1)"><g><path fill="none" stroke="none"/><text fill="#000000" stroke="none" font-family="Arial" font-size="13px" font-style="normal" font-weight="normal" text-decoration="none" x="877" y="1198.5">+Equals(other: Cocktail): bool</text></g></g><g transform="translate(-486,-254) scale(1,1)"><rect fill="#C0C0C0" stroke="none" x="1767" y="1095" width="191.47607421875" height="115" opacity="0.2"/></g><g transform="translate(-486,-254) scale(1,1)"><rect fill="#ffffff" stroke="none" x="1760" y="1088" width="191.47607421875" height="115"/></g><g transform="translate(-486,-254) scale(1,1)"><path fill="none" stroke="#000000" d="M 1760 1088 L 1951.47607421875 1088 L 1951.47607421875 1203 L 1760 1203 L 1760 1088 Z Z" stroke-miterlimit="10"/></g><g transform="translate(-486,-254) scale(1,1)"><path fill="none" stroke="#000000" d="M 1760 1113 L 1951.47607421875 1113" stroke-miterlimit="10"/></g><g transform="translate(-486,-254) scale(1,1)"><path fill="none" stroke="#000000" d="M 1760 1151 L 1951.47607421875 1151" stroke-miterlimit="10"/></g><g transform="translate(-486,-254) scale(1,1)"><g><path fill="none" stroke="none"/><text fill="#000000" stroke="none" font-family="Arial" font-size="13px" font-style="normal" font-weight="bold" text-decoration="none" x="1826.82763671875" y="1107.5">Ingredient</text></g></g><g transform="translate(-486,-254) scale(1,1)"><g><path fill="none" stroke="none"/><text fill="#000000" stroke="none" font-family="Arial" font-size="13px" font-style="normal" font-weight="normal" text-decoration="none" x="1765" y="1130.5">+/Nom: string</text></g></g><g transform="translate(-486,-254) scale(1,1)"><g><path fill="none" stroke="none"/><text fill="#000000" stroke="none" font-family="Arial" font-size="13px" font-style="normal" font-weight="normal" text-decoration="none" x="1765" y="1145.5">+/Qte: float</text></g></g><g transform="translate(-486,-254) scale(1,1)"><g><path fill="none" stroke="none"/><text fill="#000000" stroke="none" font-family="Arial" font-size="13px" font-style="normal" font-weight="normal" text-decoration="none" x="1765" y="1168.5">+ToString(): string</text></g></g><g transform="translate(-486,-254) scale(1,1)"><g><path fill="none" stroke="none"/><text fill="#000000" stroke="none" font-family="Arial" font-size="13px" font-style="normal" font-weight="normal" text-decoration="none" x="1765" y="1183.5">+Equals(right: Object): bool</text></g></g><g transform="translate(-486,-254) scale(1,1)"><g><path fill="none" stroke="none"/><text fill="#000000" stroke="none" font-family="Arial" font-size="13px" font-style="normal" font-weight="normal" text-decoration="none" x="1765" y="1198.5">+Equals(other: Ingredient): bool</text></g></g><g transform="translate(-486,-254) scale(1,1)"><rect fill="#C0C0C0" stroke="none" x="1374" y="887" width="95.72802734375" height="90" opacity="0.2"/></g><g transform="translate(-486,-254) scale(1,1)"><rect fill="#ffffff" stroke="none" x="1367" y="880" width="95.72802734375" height="90"/></g><g transform="translate(-486,-254) scale(1,1)"><path fill="none" stroke="#000000" d="M 1367 880 L 1462.72802734375 880 L 1462.72802734375 970 L 1367 970 L 1367 880 Z Z" stroke-miterlimit="10"/></g><g transform="translate(-486,-254) scale(1,1)"><path fill="none" stroke="#000000" d="M 1367 918 L 1462.72802734375 918" stroke-miterlimit="10"/></g><g transform="translate(-486,-254) scale(1,1)"><g><path fill="none" stroke="none"/><text fill="#000000" stroke="none" font-family="Arial" font-size="13px" font-style="normal" font-weight="normal" text-decoration="none" x="1371.5" y="897.5">«enumeration»</text></g></g><g transform="translate(-486,-254) scale(1,1)"><g><path fill="none" stroke="none"/><text fill="#000000" stroke="none" font-family="Arial" font-size="13px" font-style="normal" font-weight="bold" text-decoration="none" x="1390.057373046875" y="912.5">Difficulté</text></g></g><g transform="translate(-486,-254) scale(1,1)"><g><path fill="none" stroke="none"/><text fill="#000000" stroke="none" font-family="Arial" font-size="13px" font-style="normal" font-weight="normal" text-decoration="none" x="1372" y="935.5">Facile</text></g></g><g transform="translate(-486,-254) scale(1,1)"><g><path fill="none" stroke="none"/><text fill="#000000" stroke="none" font-family="Arial" font-size="13px" font-style="normal" font-weight="normal" text-decoration="none" x="1372" y="950.5">Moyen</text></g></g><g transform="translate(-486,-254) scale(1,1)"><g><path fill="none" stroke="none"/><text fill="#000000" stroke="none" font-family="Arial" font-size="13px" font-style="normal" font-weight="normal" text-decoration="none" x="1372" y="965.5">Difficile</text></g></g><g transform="translate(-486,-254) scale(1,1)"><rect fill="#C0C0C0" stroke="none" x="1767" y="863" width="95.72802734375" height="135" opacity="0.2"/></g><g transform="translate(-486,-254) scale(1,1)"><rect fill="#ffffff" stroke="none" x="1760" y="856" width="95.72802734375" height="135"/></g><g transform="translate(-486,-254) scale(1,1)"><path fill="none" stroke="#000000" d="M 1760 856 L 1855.72802734375 856 L 1855.72802734375 991 L 1760 991 L 1760 856 Z Z" stroke-miterlimit="10"/></g><g transform="translate(-486,-254) scale(1,1)"><path fill="none" stroke="#000000" d="M 1760 894 L 1855.72802734375 894" stroke-miterlimit="10"/></g><g transform="translate(-486,-254) scale(1,1)"><g><path fill="none" stroke="none"/><text fill="#000000" stroke="none" font-family="Arial" font-size="13px" font-style="normal" font-weight="normal" text-decoration="none" x="1764.5" y="873.5">«enumeration»</text></g></g><g transform="translate(-486,-254) scale(1,1)"><g><path fill="none" stroke="none"/><text fill="#000000" stroke="none" font-family="Arial" font-size="13px" font-style="normal" font-weight="bold" text-decoration="none" x="1792.68994140625" y="888.5">Unité</text></g></g><g transform="translate(-486,-254) scale(1,1)"><g><path fill="none" stroke="none"/><text fill="#000000" stroke="none" font-family="Arial" font-size="13px" font-style="normal" font-weight="normal" text-decoration="none" x="1765" y="911.5">Unite</text></g></g><g transform="translate(-486,-254) scale(1,1)"><g><path fill="none" stroke="none"/><text fill="#000000" stroke="none" font-family="Arial" font-size="13px" font-style="normal" font-weight="normal" text-decoration="none" x="1765" y="926.5">Cl</text></g></g><g transform="translate(-486,-254) scale(1,1)"><g><path fill="none" stroke="none"/><text fill="#000000" stroke="none" font-family="Arial" font-size="13px" font-style="normal" font-weight="normal" text-decoration="none" x="1765" y="941.5">G</text></g></g><g transform="translate(-486,-254) scale(1,1)"><g><path fill="none" stroke="none"/><text fill="#000000" stroke="none" font-family="Arial" font-size="13px" font-style="normal" font-weight="normal" text-decoration="none" x="1765" y="956.5">Ml</text></g></g><g transform="translate(-486,-254) scale(1,1)"><g><path fill="none" stroke="none"/><text fill="#000000" stroke="none" font-family="Arial" font-size="13px" font-style="normal" font-weight="normal" text-decoration="none" x="1765" y="971.5">CaCafe</text></g></g><g transform="translate(-486,-254) scale(1,1)"><g><path fill="none" stroke="none"/><text fill="#000000" stroke="none" font-family="Arial" font-size="13px" font-style="normal" font-weight="normal" text-decoration="none" x="1765" y="986.5">CaSoupe</text></g></g><g transform="translate(-486,-254) scale(1,1)"><path fill="none" stroke="#000000" d="M 1842 1087 L 1822 992" stroke-miterlimit="10"/></g><g transform="translate(-486,-254) scale(1,1)"><path fill="none" stroke="#000000" d="M 1828.2128402312196 1001.0774785189136 L 1822 992 L 1819.9743948411249 1002.811888074723" stroke-miterlimit="10"/></g><g transform="translate(-486,-254) scale(1,1)"><g><path fill="none" stroke="none"/><text fill="#000000" stroke="none" font-family="Arial" font-size="13px" font-style="normal" font-weight="normal" text-decoration="none" x="1777.5" y="1020.5">+/Unite</text></g></g><g transform="translate(-486,-254) scale(1,1)"><rect fill="#C0C0C0" stroke="none" x="1338" y="1080" width="212.41064453125" height="160" opacity="0.2"/></g><g transform="translate(-486,-254) scale(1,1)"><rect fill="#ffffff" stroke="none" x="1331" y="1073" width="212.41064453125" height="160"/></g><g transform="translate(-486,-254) scale(1,1)"><path fill="none" stroke="#000000" d="M 1331 1073 L 1543.41064453125 1073 L 1543.41064453125 1233 L 1331 1233 L 1331 1073 Z Z" stroke-miterlimit="10"/></g><g transform="translate(-486,-254) scale(1,1)"><path fill="none" stroke="#000000" d="M 1331 1098 L 1543.41064453125 1098" stroke-miterlimit="10"/></g><g transform="translate(-486,-254) scale(1,1)"><path fill="none" stroke="#000000" d="M 1331 1181 L 1543.41064453125 1181" stroke-miterlimit="10"/></g><g transform="translate(-486,-254) scale(1,1)"><g><path fill="none" stroke="none"/><text fill="#000000" stroke="none" font-family="Arial" font-size="13px" font-style="normal" font-weight="bold" text-decoration="none" x="1414.804443359375" y="1092.5">Recette</text></g></g><g transform="translate(-486,-254) scale(1,1)"><g><path fill="none" stroke="none"/><text fill="#000000" stroke="none" font-family="Arial" font-size="13px" font-style="normal" font-weight="normal" text-decoration="none" x="1336" y="1115.5">+/DegAlcool: float</text></g></g><g transform="translate(-486,-254) scale(1,1)"><g><path fill="none" stroke="none"/><text fill="#000000" stroke="none" font-family="Arial" font-size="13px" font-style="normal" font-weight="normal" text-decoration="none" x="1336" y="1130.5">+/Calorie: int</text></g></g><g transform="translate(-486,-254) scale(1,1)"><g><path fill="none" stroke="none"/><text fill="#000000" stroke="none" font-family="Arial" font-size="13px" font-style="normal" font-weight="normal" text-decoration="none" x="1336" y="1145.5">+/Nom: string</text></g></g><g transform="translate(-486,-254) scale(1,1)"><g><path fill="none" stroke="none"/><text fill="#000000" stroke="none" font-family="Arial" font-size="13px" font-style="normal" font-weight="normal" text-decoration="none" x="1336" y="1160.5">+/Desc: string</text></g></g><g transform="translate(-486,-254) scale(1,1)"><g><path fill="none" stroke="none"/><text fill="#000000" stroke="none" font-family="Arial" font-size="13px" font-style="normal" font-weight="normal" text-decoration="none" x="1336" y="1175.5">+/Etapes : SortedList&lt;int, string&gt;</text></g></g><g transform="translate(-486,-254) scale(1,1)"><g><path fill="none" stroke="none"/><text fill="#000000" stroke="none" font-family="Arial" font-size="13px" font-style="normal" font-weight="normal" text-decoration="none" x="1336" y="1198.5">+ToString(): string</text></g></g><g transform="translate(-486,-254) scale(1,1)"><g><path fill="none" stroke="none"/><text fill="#000000" stroke="none" font-family="Arial" font-size="13px" font-style="normal" font-weight="normal" text-decoration="none" x="1336" y="1213.5">+AjoutIngredient(i: Ingredient)</text></g></g><g transform="translate(-486,-254) scale(1,1)"><g><path fill="none" stroke="none"/><text fill="#000000" stroke="none" font-family="Arial" font-size="13px" font-style="normal" font-weight="normal" text-decoration="none" x="1336" y="1228.5">+AjoutEtape(num: int, detail: string)</text></g></g><g transform="translate(-486,-254) scale(1,1)"><path fill="none" stroke="#000000" d="M 1429 1072 L 1419 971" stroke-miterlimit="10"/></g><g transform="translate(-486,-254) scale(1,1)"><path fill="none" stroke="#000000" d="M 1424.1903448586695 980.6984699952149 L 1419 971 L 1415.8122741455113 981.5279819470127" stroke-miterlimit="10"/></g><g transform="translate(-486,-254) scale(1,1)"><g><path fill="none" stroke="none"/><text fill="#000000" stroke="none" font-family="Arial" font-size="13px" font-style="normal" font-weight="normal" text-decoration="none" x="1431.5" y="992.5">+/Difficulté</text></g></g><g transform="translate(-486,-254) scale(1,1)"><path fill="none" stroke="#000000" d="M 1544 1151 L 1759 1147" stroke-miterlimit="10"/></g><g transform="translate(-486,-254) scale(1,1)"><path fill="none" stroke="#000000" d="M 1748.9173865636635 1151.3978297253766 L 1759 1147 L 1748.7607804457662 1142.9802508884015" stroke-miterlimit="10"/></g><g transform="translate(-486,-254) scale(1,1)"><g><path fill="none" stroke="none"/><text fill="#000000" stroke="none" font-family="Arial" font-size="13px" font-style="normal" font-weight="normal" text-decoration="none" x="1563.5" y="1131.5">+/Ingredients : List&lt;Ingredient&gt;</text></g></g><g transform="translate(-486,-254) scale(1,1)"><path fill="none" stroke="#000000" d="M 1053 1147 L 1330 1151" stroke-miterlimit="10"/></g><g transform="translate(-486,-254) scale(1,1)"><path fill="none" stroke="#000000" d="M 1319.7776036450846 1155.0623407984822 L 1330 1151 L 1319.8991654913652 1146.6441829435603" stroke-miterlimit="10"/></g><g transform="translate(-486,-254) scale(1,1)"><g><path fill="none" stroke="none"/><text fill="#000000" stroke="none" font-family="Arial" font-size="13px" font-style="normal" font-weight="normal" text-decoration="none" x="1058.5" y="1130.5">+/recettes : List&lt;Recettes&gt;</text></g></g><g transform="translate(-486,-254) scale(1,1)"><path fill="none" stroke="#000000" d="M 986 756 L 965 1087" stroke-miterlimit="10"/></g><g transform="translate(-486,-254) scale(1,1)"><path fill="none" stroke="#000000" d="M 961.4423968543742 1076.5911835515158 L 965 1087 L 969.8445393858067 1077.1242499961083" stroke-miterlimit="10"/></g><g transform="translate(-486,-254) scale(1,1)"><g><path fill="none" stroke="none"/><text fill="#000000" stroke="none" font-family="Arial" font-size="13px" font-style="normal" font-weight="normal" text-decoration="none" x="990.5" y="933.5">+/allCocktail : List&lt;Cocktail&gt;</text></g></g><g transform="translate(-486,-254) scale(1,1)"><path fill="none" stroke="#000000" d="M 986 756 L 965 1087" stroke-miterlimit="10"/></g><g transform="translate(-486,-254) scale(1,1)"><path fill="none" stroke="#000000" d="M 961.4423968543742 1076.5911835515158 L 965 1087 L 969.8445393858067 1077.1242499961083" stroke-miterlimit="10"/></g><g transform="translate(-486,-254) scale(1,1)"><g><path fill="none" stroke="none"/><text fill="#000000" stroke="none" font-family="Arial" font-size="13px" font-style="normal" font-weight="normal" text-decoration="none" x="986.5" y="953.5">+/favCocktail : List&lt;Cocktail&gt;</text></g></g><g transform="translate(-486,-254) scale(1,1)"><path fill="none" stroke="#000000" d="M 986 756 L 965 1087" stroke-miterlimit="10"/></g><g transform="translate(-486,-254) scale(1,1)"><path fill="none" stroke="#000000" d="M 961.4423968543742 1076.5911835515158 L 965 1087 L 969.8445393858067 1077.1242499961083" stroke-miterlimit="10"/></g><g transform="translate(-486,-254) scale(1,1)"><g><path fill="none" stroke="none"/><text fill="#000000" stroke="none" font-family="Arial" font-size="13px" font-style="normal" font-weight="normal" text-decoration="none" x="983.5" y="976.5">+/creaCocktail : List&lt;Cocktail&gt;</text></g></g><g transform="translate(-486,-254) scale(1,1)"><path fill="#C0C0C0" stroke="none" d="M 1110.45458984375 426.5 C 1110.45458984375 420.1487248 1115.60331464375 415 1121.95458984375 415 C 1128.30586504375 415 1133.45458984375 420.1487248 1133.45458984375 426.5 C 1133.45458984375 432.8512752 1128.30586504375 438 1121.95458984375 438 C 1115.60331464375 438 1110.45458984375 432.8512752 1110.45458984375 426.5 Z" opacity="0.2"/></g><g transform="translate(-486,-254) scale(1,1)"><path fill="#ffffff" stroke="none" d="M 1103.45458984375 419.5 C 1103.45458984375 413.1487248 1108.60331464375 408 1114.95458984375 408 C 1121.30586504375 408 1126.45458984375 413.1487248 1126.45458984375 419.5 C 1126.45458984375 425.8512752 1121.30586504375 431 1114.95458984375 431 C 1108.60331464375 431 1103.45458984375 425.8512752 1103.45458984375 419.5 Z"/></g><g transform="translate(-486,-254) scale(1,1)"><path fill="none" stroke="#000000" d="M 1103.45458984375 419.5 C 1103.45458984375 413.1487248 1108.60331464375 408 1114.95458984375 408 C 1121.30586504375 408 1126.45458984375 413.1487248 1126.45458984375 419.5 C 1126.45458984375 425.8512752 1121.30586504375 431 1114.95458984375 431 C 1108.60331464375 431 1103.45458984375 425.8512752 1103.45458984375 419.5 Z" stroke-miterlimit="10"/></g><g transform="translate(-486,-254) scale(1,1)"><path fill="none" stroke="#000000" d="M 736 469 L 1493.9091796875 469" stroke-miterlimit="10"/></g><g transform="translate(-486,-254) scale(1,1)"><g><path fill="none" stroke="none"/><text fill="#000000" stroke="none" font-family="Arial" font-size="13px" font-style="normal" font-weight="normal" text-decoration="none" x="1082.794189453125" y="448.5">«interface»</text></g></g><g transform="translate(-486,-254) scale(1,1)"><g><path fill="none" stroke="none"/><text fill="#000000" stroke="none" font-family="Arial" font-size="13px" font-style="normal" font-weight="bold" text-decoration="none" x="1074.129638671875" y="463.5">IPersManager</text></g></g><g transform="translate(-486,-254) scale(1,1)"><g><path fill="none" stroke="none"/><text fill="#000000" stroke="none" font-family="Arial" font-size="13px" font-style="normal" font-weight="normal" text-decoration="none" x="741" y="486.5">+chargement(): IEnumerable&lt;List&lt;Coctail&gt;&gt;</text></g></g><g transform="translate(-486,-254) scale(1,1)"><g><path fill="none" stroke="none"/><text fill="#000000" stroke="none" font-family="Arial" font-size="13px" font-style="normal" font-weight="normal" text-decoration="none" x="741" y="501.5">+Enregistrement(AllCocktail: IEnumerable&lt;Cocktail&gt;, FavCocktail: IEnumerable&lt;Cocktail&gt;, CreaCocktail: IEnumerable&lt;Cocktail&gt;)</text></g></g><g transform="translate(-486,-254) scale(1,1)"><path fill="none" stroke="#000000" d="M 1032 607 L 1086 508" stroke-miterlimit="10"/></g><g transform="translate(-486,-254) scale(1,1)"><path fill="none" stroke="#000000" d="M 1084.8290984931236 518.9375038130826 L 1086 508 L 1077.4380644889018 514.9060307198706" stroke-miterlimit="10"/></g><g transform="translate(-486,-254) scale(1,1)"><g><path fill="none" stroke="none"/><text fill="#000000" stroke="none" font-family="Arial" font-size="13px" font-style="normal" font-weight="normal" text-decoration="none" x="1064.5" y="571.5">+/Pers</text></g></g><g transform="translate(-486,-254) scale(1,1)"><rect fill="#C0C0C0" stroke="none" x="527" y="279" width="334.4951171875" height="72" opacity="0.2"/></g><g transform="translate(-486,-254) scale(1,1)"><rect fill="#ffffff" stroke="none" x="520" y="272" width="334.4951171875" height="72"/></g><g transform="translate(-486,-254) scale(1,1)"><path fill="none" stroke="#000000" d="M 520 272 L 854.4951171875 272 L 854.4951171875 344 L 520 344 L 520 272 Z Z" stroke-miterlimit="10"/></g><g transform="translate(-486,-254) scale(1,1)"><path fill="none" stroke="#000000" d="M 520 297 L 854.4951171875 297" stroke-miterlimit="10"/></g><g transform="translate(-486,-254) scale(1,1)"><path fill="none" stroke="#000000" d="M 520 307 L 854.4951171875 307" stroke-miterlimit="10"/></g><g transform="translate(-486,-254) scale(1,1)"><g><path fill="none" stroke="none"/><text fill="#000000" stroke="none" font-family="Arial" font-size="13px" font-style="normal" font-weight="bold" text-decoration="none" x="673.876220703125" y="291.5">Stub</text></g></g><g transform="translate(-486,-254) scale(1,1)"><g><path fill="none" stroke="none"/><text fill="#000000" stroke="none" font-family="Arial" font-size="13px" font-style="normal" font-weight="normal" text-decoration="none" x="525" y="324.5">+chargement(): IEnumerable&lt;List&lt;Coctail&gt;&gt;</text></g></g><g transform="translate(-486,-254) scale(1,1)"><g><path fill="none" stroke="none"/><text fill="#000000" stroke="none" font-family="Arial" font-size="13px" font-style="normal" font-weight="normal" text-decoration="none" x="525" y="339.5">+Enregistrement(AllCocktail: IEnumerable&lt;Cocktail&gt;, ...)</text></g></g><g transform="translate(-486,-254) scale(1,1)"><path fill="none" stroke="#000000" d="M 793 345 L 1103.45458984375 418.1150704763986" stroke-miterlimit="10"/></g><g transform="translate(-486,-254) scale(1,1)"><path fill="none" stroke="#000000" d="M 986 756 L 965 1087" stroke-miterlimit="10"/></g><g transform="translate(-486,-254) scale(1,1)"><path fill="none" stroke="#000000" d="M 961.4423968543742 1076.5911835515158 L 965 1087 L 969.8445393858067 1077.1242499961083" stroke-miterlimit="10"/></g><g transform="translate(-486,-254) scale(1,1)"><g><path fill="none" stroke="none"/><text fill="#000000" stroke="none" font-family="Arial" font-size="13px" font-style="normal" font-weight="normal" text-decoration="none" x="990.5" y="933.5">+/allCocktail : List&lt;Cocktail&gt;</text></g></g><g transform="translate(-486,-254) scale(1,1)"><path fill="none" stroke="#000000" d="M 986 756 L 965 1087" stroke-miterlimit="10"/></g><g transform="translate(-486,-254) scale(1,1)"><path fill="none" stroke="#000000" d="M 961.4423968543742 1076.5911835515158 L 965 1087 L 969.8445393858067 1077.1242499961083" stroke-miterlimit="10"/></g><g transform="translate(-486,-254) scale(1,1)"><g><path fill="none" stroke="none"/><text fill="#000000" stroke="none" font-family="Arial" font-size="13px" font-style="normal" font-weight="normal" text-decoration="none" x="986.5" y="953.5">+/favCocktail : List&lt;Cocktail&gt;</text></g></g><g transform="translate(-486,-254) scale(1,1)"><path fill="none" stroke="#000000" d="M 986 756 L 965 1087" stroke-miterlimit="10"/></g><g transform="translate(-486,-254) scale(1,1)"><path fill="none" stroke="#000000" d="M 961.4423968543742 1076.5911835515158 L 965 1087 L 969.8445393858067 1077.1242499961083" stroke-miterlimit="10"/></g><g transform="translate(-486,-254) scale(1,1)"><g><path fill="none" stroke="none"/><text fill="#000000" stroke="none" font-family="Arial" font-size="13px" font-style="normal" font-weight="normal" text-decoration="none" x="983.5" y="976.5">+/creaCocktail : List&lt;Cocktail&gt;</text></g></g><g transform="translate(-486,-254) scale(1,1)"><path fill="none" stroke="#000000" d="M 688 345 L 696 808 L 792 832 L 930 1087" stroke-miterlimit="10"/></g><g transform="translate(-486,-254) scale(1,1)"><path fill="none" stroke="#000000" d="M 921.460922071742 1080.0657265604004 L 930 1087 L 928.8652318635909 1076.0586883201058" stroke-miterlimit="10"/></g><g transform="translate(-486,-254) scale(1,1)"><g><path fill="none" stroke="none"/><text fill="#000000" stroke="none" font-family="Arial" font-size="13px" font-style="normal" font-weight="normal" text-decoration="none" x="520.13134765625" y="739.5">-AllCocktail : List&lt;Cocktail&gt;</text></g></g><g transform="translate(-486,-254) scale(1,1)"><path fill="none" stroke="#000000" d="M 688 345 L 696 808 L 792 832 L 930 1087" stroke-miterlimit="10"/></g><g transform="translate(-486,-254) scale(1,1)"><path fill="none" stroke="#000000" d="M 921.460922071742 1080.0657265604004 L 930 1087 L 928.8652318635909 1076.0586883201058" stroke-miterlimit="10"/></g><g transform="translate(-486,-254) scale(1,1)"><g><path fill="none" stroke="none"/><text fill="#000000" stroke="none" font-family="Arial" font-size="13px" font-style="normal" font-weight="normal" text-decoration="none" x="521.13134765625" y="755.5">-FavCocktail : List&lt;Cocktail&gt;</text></g></g><g transform="translate(-486,-254) scale(1,1)"><path fill="none" stroke="#000000" d="M 688 345 L 696 808 L 792 832 L 930 1087" stroke-miterlimit="10"/></g><g transform="translate(-486,-254) scale(1,1)"><path fill="none" stroke="#000000" d="M 921.460922071742 1080.0657265604004 L 930 1087 L 928.8652318635909 1076.0586883201058" stroke-miterlimit="10"/></g><g transform="translate(-486,-254) scale(1,1)"><g><path fill="none" stroke="none"/><text fill="#000000" stroke="none" font-family="Arial" font-size="13px" font-style="normal" font-weight="normal" text-decoration="none" x="512.13134765625" y="771.5">-CreaCocktail : List&lt;Cocktail&gt;</text></g></g><g transform="translate(-486,-254) scale(1,1)"><rect fill="#C0C0C0" stroke="none" x="975" y="271" width="334.4951171875" height="72" opacity="0.2"/></g><g transform="translate(-486,-254) scale(1,1)"><rect fill="#ffffff" stroke="none" x="968" y="264" width="334.4951171875" height="72"/></g><g transform="translate(-486,-254) scale(1,1)"><path fill="none" stroke="#000000" d="M 968 264 L 1302.4951171875 264 L 1302.4951171875 336 L 968 336 L 968 264 Z Z" stroke-miterlimit="10"/></g><g transform="translate(-486,-254) scale(1,1)"><path fill="none" stroke="#000000" d="M 968 289 L 1302.4951171875 289" stroke-miterlimit="10"/></g><g transform="translate(-486,-254) scale(1,1)"><path fill="none" stroke="#000000" d="M 968 299 L 1302.4951171875 299" stroke-miterlimit="10"/></g><g transform="translate(-486,-254) scale(1,1)"><g><path fill="none" stroke="none"/><text fill="#000000" stroke="none" font-family="Arial" font-size="13px" font-style="normal" font-weight="bold" text-decoration="none" x="1114.303466796875" y="283.5">XmlPM</text></g></g><g transform="translate(-486,-254) scale(1,1)"><g><path fill="none" stroke="none"/><text fill="#000000" stroke="none" font-family="Arial" font-size="13px" font-style="normal" font-weight="normal" text-decoration="none" x="973" y="316.5">+chargement(): IEnumerable&lt;List&lt;Coctail&gt;&gt;</text></g></g><g transform="translate(-486,-254) scale(1,1)"><g><path fill="none" stroke="none"/><text fill="#000000" stroke="none" font-family="Arial" font-size="13px" font-style="normal" font-weight="normal" text-decoration="none" x="973" y="331.5">+Enregistrement(AllCocktail: IEnumerable&lt;Cocktail&gt;, ...)</text></g></g><g transform="translate(-486,-254) scale(1,1)"><path fill="none" stroke="#000000" d="M 1130 337 L 1120.4166666666667 408" stroke-miterlimit="10"/></g><g transform="translate(-486,-254) scale(1,1)"><rect fill="#C0C0C0" stroke="none" x="1351" y="271" width="334.4951171875" height="72" opacity="0.2"/></g><g transform="translate(-486,-254) scale(1,1)"><rect fill="#ffffff" stroke="none" x="1344" y="264" width="334.4951171875" height="72"/></g><g transform="translate(-486,-254) scale(1,1)"><path fill="none" stroke="#000000" d="M 1344 264 L 1678.4951171875 264 L 1678.4951171875 336 L 1344 336 L 1344 264 Z Z" stroke-miterlimit="10"/></g><g transform="translate(-486,-254) scale(1,1)"><path fill="none" stroke="#000000" d="M 1344 289 L 1678.4951171875 289" stroke-miterlimit="10"/></g><g transform="translate(-486,-254) scale(1,1)"><path fill="none" stroke="#000000" d="M 1344 299 L 1678.4951171875 299" stroke-miterlimit="10"/></g><g transform="translate(-486,-254) scale(1,1)"><g><path fill="none" stroke="none"/><text fill="#000000" stroke="none" font-family="Arial" font-size="13px" font-style="normal" font-weight="bold" text-decoration="none" x="1492.10302734375" y="283.5">BinPM</text></g></g><g transform="translate(-486,-254) scale(1,1)"><g><path fill="none" stroke="none"/><text fill="#000000" stroke="none" font-family="Arial" font-size="13px" font-style="normal" font-weight="normal" text-decoration="none" x="1349" y="316.5">+chargement(): IEnumerable&lt;List&lt;Coctail&gt;&gt;</text></g></g><g transform="translate(-486,-254) scale(1,1)"><g><path fill="none" stroke="none"/><text fill="#000000" stroke="none" font-family="Arial" font-size="13px" font-style="normal" font-weight="normal" text-decoration="none" x="1349" y="331.5">+Enregistrement(AllCocktail: IEnumerable&lt;Cocktail&gt;, ...)</text></g></g><g transform="translate(-486,-254) scale(1,1)"><path fill="none" stroke="#000000" d="M 1417 337 L 1126.45458984375 417.8138485863095" stroke-miterlimit="10"/></g><g transform="translate(-486,-254) scale(1,1)"><rect fill="#C0C0C0" stroke="none" x="503" y="975" width="328.72509765625" height="57" opacity="0.2"/></g><g transform="translate(-486,-254) scale(1,1)"><rect fill="#ffffff" stroke="none" x="496" y="968" width="328.72509765625" height="57"/></g><g transform="translate(-486,-254) scale(1,1)"><path fill="none" stroke="#000000" d="M 496 968 L 824.72509765625 968 L 824.72509765625 1025 L 496 1025 L 496 968 Z Z" stroke-miterlimit="10"/></g><g transform="translate(-486,-254) scale(1,1)"><path fill="none" stroke="#000000" d="M 496 993 L 824.72509765625 993" stroke-miterlimit="10"/></g><g transform="translate(-486,-254) scale(1,1)"><path fill="none" stroke="#000000" d="M 496 1003 L 824.72509765625 1003" stroke-miterlimit="10"/></g><g transform="translate(-486,-254) scale(1,1)"><g><path fill="none" stroke="none"/><text fill="#000000" stroke="none" font-family="Arial" font-size="13px" font-style="normal" font-weight="bold" text-decoration="none" x="653.024658203125" y="987.5">Tri</text></g></g><g transform="translate(-486,-254) scale(1,1)"><g><path fill="none" stroke="none"/><text fill="#000000" stroke="none" font-family="Arial" font-size="13px" font-style="normal" font-weight="normal" text-decoration="none" x="501" y="1020.5">+tri(ListeCockail: List&lt;Cocktail&gt;): List&lt;Cocktail&gt;</text><path fill="none" stroke="#000000" d="M 501 1020.5 L 775.91064453125 1020.5" stroke-miterlimit="10"/></g></g><g transform="translate(-486,-254) scale(1,1)"><path fill="#C0C0C0" stroke="none" d="M 1576.47021484375 642.5 C 1576.47021484375 636.1487248 1581.61893964375 631 1587.97021484375 631 C 1594.32149004375 631 1599.47021484375 636.1487248 1599.47021484375 642.5 C 1599.47021484375 648.8512752 1594.32149004375 654 1587.97021484375 654 C 1581.61893964375 654 1576.47021484375 648.8512752 1576.47021484375 642.5 Z" opacity="0.2"/></g><g transform="translate(-486,-254) scale(1,1)"><path fill="#ffffff" stroke="none" d="M 1569.47021484375 635.5 C 1569.47021484375 629.1487248 1574.61893964375 624 1580.97021484375 624 C 1587.32149004375 624 1592.47021484375 629.1487248 1592.47021484375 635.5 C 1592.47021484375 641.8512752 1587.32149004375 647 1580.97021484375 647 C 1574.61893964375 647 1569.47021484375 641.8512752 1569.47021484375 635.5 Z"/></g><g transform="translate(-486,-254) scale(1,1)"><path fill="none" stroke="#000000" d="M 1569.47021484375 635.5 C 1569.47021484375 629.1487248 1574.61893964375 624 1580.97021484375 624 C 1587.32149004375 624 1592.47021484375 629.1487248 1592.47021484375 635.5 C 1592.47021484375 641.8512752 1587.32149004375 647 1580.97021484375 647 C 1574.61893964375 647 1569.47021484375 641.8512752 1569.47021484375 635.5 Z" stroke-miterlimit="10"/></g><g transform="translate(-486,-254) scale(1,1)"><path fill="none" stroke="#000000" d="M 1344 685 L 1817.9404296875 685" stroke-miterlimit="10"/></g><g transform="translate(-486,-254) scale(1,1)"><g><path fill="none" stroke="none"/><text fill="#000000" stroke="none" font-family="Arial" font-size="13px" font-style="normal" font-weight="normal" text-decoration="none" x="1548.809814453125" y="664.5">«interface»</text></g></g><g transform="translate(-486,-254) scale(1,1)"><g><path fill="none" stroke="none"/><text fill="#000000" stroke="none" font-family="Arial" font-size="13px" font-style="normal" font-weight="bold" text-decoration="none" x="1547.730712890625" y="679.5">IRecherche</text></g></g><g transform="translate(-486,-254) scale(1,1)"><g><path fill="none" stroke="none"/><text fill="#000000" stroke="none" font-family="Arial" font-size="13px" font-style="normal" font-weight="normal" text-decoration="none" x="1349" y="702.5">+Recherche(motCle: string, AllCocktails: List&lt;Cocktail&gt;): IEnumerable&lt;Cocktail&gt;</text></g></g><g transform="translate(-486,-254) scale(1,1)"><rect fill="#C0C0C0" stroke="none" x="1951" y="391" width="473.9404296875" height="57" opacity="0.2"/></g><g transform="translate(-486,-254) scale(1,1)"><rect fill="#ffffff" stroke="none" x="1944" y="384" width="473.9404296875" height="57"/></g><g transform="translate(-486,-254) scale(1,1)"><path fill="none" stroke="#000000" d="M 1944 384 L 2417.9404296875 384 L 2417.9404296875 441 L 1944 441 L 1944 384 Z Z" stroke-miterlimit="10"/></g><g transform="translate(-486,-254) scale(1,1)"><path fill="none" stroke="#000000" d="M 1944 409 L 2417.9404296875 409" stroke-miterlimit="10"/></g><g transform="translate(-486,-254) scale(1,1)"><path fill="none" stroke="#000000" d="M 1944 419 L 2417.9404296875 419" stroke-miterlimit="10"/></g><g transform="translate(-486,-254) scale(1,1)"><g><path fill="none" stroke="none"/><text fill="#000000" stroke="none" font-family="Arial" font-size="13px" font-style="normal" font-weight="bold" text-decoration="none" x="2144.842529296875" y="403.5">RechDegAlc</text></g></g><g transform="translate(-486,-254) scale(1,1)"><g><path fill="none" stroke="none"/><text fill="#000000" stroke="none" font-family="Arial" font-size="13px" font-style="normal" font-weight="normal" text-decoration="none" x="1949" y="436.5">+Recherche(motCle: string, AllCocktails: List&lt;Cocktail&gt;): IEnumerable&lt;Cocktail&gt;</text></g></g><g transform="translate(-486,-254) scale(1,1)"><path fill="none" stroke="#000000" d="M 2109 442 L 1592.47021484375 633.5329159007352" stroke-miterlimit="10"/></g><g transform="translate(-486,-254) scale(1,1)"><rect fill="#C0C0C0" stroke="none" x="2191" y="559" width="473.9404296875" height="57" opacity="0.2"/></g><g transform="translate(-486,-254) scale(1,1)"><rect fill="#ffffff" stroke="none" x="2184" y="552" width="473.9404296875" height="57"/></g><g transform="translate(-486,-254) scale(1,1)"><path fill="none" stroke="#000000" d="M 2184 552 L 2657.9404296875 552 L 2657.9404296875 609 L 2184 609 L 2184 552 Z Z" stroke-miterlimit="10"/></g><g transform="translate(-486,-254) scale(1,1)"><path fill="none" stroke="#000000" d="M 2184 577 L 2657.9404296875 577" stroke-miterlimit="10"/></g><g transform="translate(-486,-254) scale(1,1)"><path fill="none" stroke="#000000" d="M 2184 587 L 2657.9404296875 587" stroke-miterlimit="10"/></g><g transform="translate(-486,-254) scale(1,1)"><g><path fill="none" stroke="none"/><text fill="#000000" stroke="none" font-family="Arial" font-size="13px" font-style="normal" font-weight="bold" text-decoration="none" x="2396.76025390625" y="571.5">RechIng</text></g></g><g transform="translate(-486,-254) scale(1,1)"><g><path fill="none" stroke="none"/><text fill="#000000" stroke="none" font-family="Arial" font-size="13px" font-style="normal" font-weight="normal" text-decoration="none" x="2189" y="604.5">+Recherche(motCle: string, AllCocktails: List&lt;Cocktail&gt;): IEnumerable&lt;Cocktail&gt;</text></g></g><g transform="translate(-486,-254) scale(1,1)"><path fill="none" stroke="#000000" d="M 2183 604 L 1592.47021484375 635.3652364180177" stroke-miterlimit="10"/></g><g transform="translate(-486,-254) scale(1,1)"><rect fill="#C0C0C0" stroke="none" x="2279" y="687" width="473.9404296875" height="57" opacity="0.2"/></g><g transform="translate(-486,-254) scale(1,1)"><rect fill="#ffffff" stroke="none" x="2272" y="680" width="473.9404296875" height="57"/></g><g transform="translate(-486,-254) scale(1,1)"><path fill="none" stroke="#000000" d="M 2272 680 L 2745.9404296875 680 L 2745.9404296875 737 L 2272 737 L 2272 680 Z Z" stroke-miterlimit="10"/></g><g transform="translate(-486,-254) scale(1,1)"><path fill="none" stroke="#000000" d="M 2272 705 L 2745.9404296875 705" stroke-miterlimit="10"/></g><g transform="translate(-486,-254) scale(1,1)"><path fill="none" stroke="#000000" d="M 2272 715 L 2745.9404296875 715" stroke-miterlimit="10"/></g><g transform="translate(-486,-254) scale(1,1)"><g><path fill="none" stroke="none"/><text fill="#000000" stroke="none" font-family="Arial" font-size="13px" font-style="normal" font-weight="bold" text-decoration="none" x="2480.072509765625" y="699.5">RechNom</text></g></g><g transform="translate(-486,-254) scale(1,1)"><g><path fill="none" stroke="none"/><text fill="#000000" stroke="none" font-family="Arial" font-size="13px" font-style="normal" font-weight="normal" text-decoration="none" x="2277" y="732.5">+Recherche(motCle: string, AllCocktails: List&lt;Cocktail&gt;): IEnumerable&lt;Cocktail&gt;</text></g></g><g transform="translate(-486,-254) scale(1,1)"><path fill="none" stroke="#000000" d="M 2271 697 L 1592.47021484375 637.1914185081067" stroke-miterlimit="10"/></g></g></svg>