<svg version="1.1" xmlns="http://www.w3.org/2000/svg" xmlns:xlink="http://www.w3.org/1999/xlink" width="483.1494140625" height="248"><defs/><g><g transform="translate(-390,-126) scale(1,1)"><rect fill="#C0C0C0" stroke="none" x="415" y="327" width="62.4599609375" height="44" opacity="0.2"/></g><g transform="translate(-390,-126) scale(1,1)"><rect fill="#ffffff" stroke="none" x="408" y="320" width="62.4599609375" height="44"/></g><g transform="translate(-390,-126) scale(1,1)"><path fill="none" stroke="#000000" d="M 408 320 L 470.4599609375 320 L 470.4599609375 364 L 408 364 L 408 320 Z Z" stroke-miterlimit="10"/></g><g transform="translate(-390,-126) scale(1,1)"><path fill="none" stroke="#000000" d="M 408 345 L 470.4599609375 345" stroke-miterlimit="10"/></g><g transform="translate(-390,-126) scale(1,1)"><path fill="none" stroke="#000000" d="M 408 355 L 470.4599609375 355" stroke-miterlimit="10"/></g><g transform="translate(-390,-126) scale(1,1)"><g><path fill="none" stroke="none"/><text fill="#000000" stroke="none" font-family="Arial" font-size="13px" font-style="normal" font-weight="bold" text-decoration="none" x="413.575927734375" y="339.5">Manager</text></g></g><g transform="translate(-390,-126) scale(1,1)"><rect fill="#C0C0C0" stroke="none" x="407" y="143" width="463.1494140625" height="72" opacity="0.2"/></g><g transform="translate(-390,-126) scale(1,1)"><rect fill="#ffffff" stroke="none" x="400" y="136" width="463.1494140625" height="72"/></g><g transform="translate(-390,-126) scale(1,1)"><path fill="none" stroke="#000000" d="M 400 136 L 863.1494140625 136 L 863.1494140625 208 L 400 208 L 400 136 Z Z" stroke-miterlimit="10"/></g><g transform="translate(-390,-126) scale(1,1)"><path fill="none" stroke="#000000" d="M 400 161 L 863.1494140625 161" stroke-miterlimit="10"/></g><g transform="translate(-390,-126) scale(1,1)"><path fill="none" stroke="#000000" d="M 400 171 L 863.1494140625 171" stroke-miterlimit="10"/></g><g transform="translate(-390,-126) scale(1,1)"><g><path fill="none" stroke="none"/><text fill="#000000" stroke="none" font-family="Arial" font-size="13px" font-style="normal" font-weight="bold" text-decoration="none" x="598.697021484375" y="155.5">Calculateur</text></g></g><g transform="translate(-390,-126) scale(1,1)"><g><path fill="none" stroke="none"/><text fill="#000000" stroke="none" font-family="Arial" font-size="13px" font-style="normal" font-weight="normal" text-decoration="none" x="405" y="188.5">+Multiplication(c: Cocktail, nbDose: int): Cocktail</text></g></g><g transform="translate(-390,-126) scale(1,1)"><g><path fill="none" stroke="none"/><text fill="#000000" stroke="none" font-family="Arial" font-size="13px" font-style="normal" font-weight="normal" text-decoration="none" x="405" y="203.5">+Addition(listeCocktail:  List&lt;Cocktail&gt;): IEnumerable&lt;Ingredient&gt;</text></g></g><g transform="translate(-390,-126) scale(1,1)"><path fill="none" stroke="#000000" d="M 465 319 L 589 209" stroke-miterlimit="10"/></g><g transform="translate(-390,-126) scale(1,1)"><path fill="none" stroke="#000000" d="M 584.191058116743 218.89313286898826 L 589 209 L 578.6040632451758 212.59506592285803" stroke-miterlimit="10"/></g><g transform="translate(-390,-126) scale(1,1)"><g><path fill="none" stroke="none"/><text fill="#000000" stroke="none" font-family="Arial" font-size="13px" font-style="normal" font-weight="normal" text-decoration="none" x="487.5" y="243.5">+/Calcul</text></g></g></g></svg>