<svg version="1.1" xmlns="http://www.w3.org/2000/svg" xmlns:xlink="http://www.w3.org/1999/xlink" width="1452" height="828"><defs/><g><g transform="translate(-158,-14) scale(1,1)"><rect fill="#C0C0C0" stroke="none" x="335" y="31" width="1272" height="808" opacity="0.2"/></g><g transform="translate(-158,-14) scale(1,1)"><rect fill="#ffffff" stroke="none" x="328" y="24" width="1272" height="808"/></g><g transform="translate(-158,-14) scale(1,1)"><path fill="none" stroke="#000000" d="M 328 24 L 1600 24 L 1600 832 L 328 832 L 328 24 Z Z" stroke-miterlimit="10"/></g><g transform="translate(-158,-14) scale(1,1)"><g><path fill="none" stroke="none"/><text fill="#000000" stroke="none" font-family="Arial" font-size="13px" font-style="normal" font-weight="bold" text-decoration="none" x="894.629638671875" y="43.5">Gestionnaire de cocktail</text></g></g><g transform="translate(-158,-14) scale(1,1)"><path fill="#ffffff" stroke="none" d="M 195.60661594460228 377.68 C 195.60661594460228 372.886167936 199.49245826954774 369 204.285888671875 369 C 209.07931907420226 369 212.96516139914772 372.886167936 212.96516139914772 377.68 C 212.96516139914772 382.473832064 209.07931907420226 386.36 204.285888671875 386.36 C 199.49245826954774 386.36 195.60661594460228 382.473832064 195.60661594460228 377.68 Z"/></g><g transform="translate(-158,-14) scale(1,1)"><path fill="none" stroke="#000000" d="M 195.60661594460228 377.68 C 195.60661594460228 372.886167936 199.49245826954774 369 204.285888671875 369 C 209.07931907420226 369 212.96516139914772 372.886167936 212.96516139914772 377.68 C 212.96516139914772 382.473832064 209.07931907420226 386.36 204.285888671875 386.36 C 199.49245826954774 386.36 195.60661594460228 382.473832064 195.60661594460228 377.68 Z" stroke-miterlimit="10"/></g><g transform="translate(-158,-14) scale(1,1)"><path fill="none" stroke="#000000" d="M 204.285888671875 386.36 L 204.285888671875 403.64" stroke-miterlimit="10"/></g><g transform="translate(-158,-14) scale(1,1)"><path fill="none" stroke="#000000" d="M 195.09607049005683 392.84 L 213.47570685369317 392.84" stroke-miterlimit="10"/></g><g transform="translate(-158,-14) scale(1,1)"><path fill="none" stroke="#000000" d="M 204.285888671875 403.64 L 191.52225230823865 421" stroke-miterlimit="10"/></g><g transform="translate(-158,-14) scale(1,1)"><path fill="none" stroke="#000000" d="M 204.285888671875 403.64 L 217.04952503551135 421" stroke-miterlimit="10"/></g><g transform="translate(-158,-14) scale(1,1)"><g><path fill="none" stroke="none"/><text fill="#000000" stroke="none" font-family="Arial" font-size="13px" font-style="normal" font-weight="bold" text-decoration="none" x="175.38818359375" y="441.5">Utilisateur</text></g></g><g transform="translate(-158,-14) scale(1,1)"><path fill="#C0C0C0" stroke="none" d="M 358 218.5 C 358 190.05733279999998 420.68012799999997 167 498 167 C 575.319872 167 638 190.05733279999998 638 218.5 C 638 246.94266720000002 575.319872 270 498 270 C 420.68012799999997 270 358 246.94266720000002 358 218.5 Z" opacity="0.2"/></g><g transform="translate(-158,-14) scale(1,1)"><path fill="#ffffff" stroke="none" d="M 351 211.5 C 351 183.05733279999998 413.68012799999997 160 491 160 C 568.319872 160 631 183.05733279999998 631 211.5 C 631 239.94266720000002 568.319872 263 491 263 C 413.68012799999997 263 351 239.94266720000002 351 211.5 Z"/></g><g transform="translate(-158,-14) scale(1,1)"><path fill="none" stroke="#000000" d="M 351 211.5 C 351 183.05733279999998 413.68012799999997 160 491 160 C 568.319872 160 631 183.05733279999998 631 211.5 C 631 239.94266720000002 568.319872 263 491 263 C 413.68012799999997 263 351 239.94266720000002 351 211.5 Z" stroke-miterlimit="10"/></g><g transform="translate(-158,-14) scale(1,1)"><g><path fill="none" stroke="none"/><text fill="#000000" stroke="none" font-family="Arial" font-size="13px" font-style="normal" font-weight="bold" text-decoration="none" x="403.202392578125" y="218.5">Accéder à une liste de cocktail</text></g></g><g transform="translate(-158,-14) scale(1,1)"><path fill="#C0C0C0" stroke="none" d="M 402 563 C 402 543.1177472 444.9806592 527 498 527 C 551.0193408 527 594 543.1177472 594 563 C 594 582.8822528 551.0193408 599 498 599 C 444.9806592 599 402 582.8822528 402 563 Z" opacity="0.2"/></g><g transform="translate(-158,-14) scale(1,1)"><path fill="#ffffff" stroke="none" d="M 395 556 C 395 536.1177472 437.9806592 520 491 520 C 544.0193408 520 587 536.1177472 587 556 C 587 575.8822528 544.0193408 592 491 592 C 437.9806592 592 395 575.8822528 395 556 Z"/></g><g transform="translate(-158,-14) scale(1,1)"><path fill="none" stroke="#000000" d="M 395 556 C 395 536.1177472 437.9806592 520 491 520 C 544.0193408 520 587 536.1177472 587 556 C 587 575.8822528 544.0193408 592 491 592 C 437.9806592 592 395 575.8822528 395 556 Z" stroke-miterlimit="10"/></g><g transform="translate(-158,-14) scale(1,1)"><g><path fill="none" stroke="none"/><text fill="#000000" stroke="none" font-family="Arial" font-size="13px" font-style="normal" font-weight="bold" text-decoration="none" x="442.23095703125" y="563">Créer un cocktail</text></g></g><g transform="translate(-158,-14) scale(1,1)"><path fill="#C0C0C0" stroke="none" d="M 550 74.5 C 550 63.7304464 591.8613712 55 643.5 55 C 695.1386288 55 737 63.7304464 737 74.5 C 737 85.2695536 695.1386288 94 643.5 94 C 591.8613712 94 550 85.2695536 550 74.5 Z" opacity="0.2"/></g><g transform="translate(-158,-14) scale(1,1)"><path fill="#ffffff" stroke="none" d="M 543 67.5 C 543 56.7304464 584.8613712 48 636.5 48 C 688.1386288 48 730 56.7304464 730 67.5 C 730 78.2695536 688.1386288 87 636.5 87 C 584.8613712 87 543 78.2695536 543 67.5 Z"/></g><g transform="translate(-158,-14) scale(1,1)"><path fill="none" stroke="#000000" d="M 543 67.5 C 543 56.7304464 584.8613712 48 636.5 48 C 688.1386288 48 730 56.7304464 730 67.5 C 730 78.2695536 688.1386288 87 636.5 87 C 584.8613712 87 543 78.2695536 543 67.5 Z" stroke-miterlimit="10"/></g><g transform="translate(-158,-14) scale(1,1)"><g><path fill="none" stroke="none"/><text fill="#000000" stroke="none" font-family="Arial" font-size="13px" font-style="normal" font-weight="bold" text-decoration="none" x="579.418701171875" y="74.5">Accéder aux favoris</text></g></g><g transform="translate(-158,-14) scale(1,1)"><path fill="#C0C0C0" stroke="none" d="M 763 128 C 763 118.6111584 809.7862384 111 867.5 111 C 925.2137616 111 972 118.6111584 972 128 C 972 137.3888416 925.2137616 145 867.5 145 C 809.7862384 145 763 137.3888416 763 128 Z" opacity="0.2"/></g><g transform="translate(-158,-14) scale(1,1)"><path fill="#ffffff" stroke="none" d="M 756 121 C 756 111.6111584 802.7862384 104 860.5 104 C 918.2137616 104 965 111.6111584 965 121 C 965 130.3888416 918.2137616 138 860.5 138 C 802.7862384 138 756 130.3888416 756 121 Z"/></g><g transform="translate(-158,-14) scale(1,1)"><path fill="none" stroke="#000000" d="M 756 121 C 756 111.6111584 802.7862384 104 860.5 104 C 918.2137616 104 965 111.6111584 965 121 C 965 130.3888416 918.2137616 138 860.5 138 C 802.7862384 138 756 130.3888416 756 121 Z" stroke-miterlimit="10"/></g><g transform="translate(-158,-14) scale(1,1)"><g><path fill="none" stroke="none"/><text fill="#000000" stroke="none" font-family="Arial" font-size="13px" font-style="normal" font-weight="bold" text-decoration="none" x="796.188720703125" y="128">Accéder aux créations</text></g></g><g transform="translate(-158,-14) scale(1,1)"><path fill="#C0C0C0" stroke="none" d="M 766 250.5 C 766 235.31216799999999 811.2192352 223 867 223 C 922.7807648 223 968 235.31216799999999 968 250.5 C 968 265.687832 922.7807648 278 867 278 C 811.2192352 278 766 265.687832 766 250.5 Z" opacity="0.2"/></g><g transform="translate(-158,-14) scale(1,1)"><path fill="#ffffff" stroke="none" d="M 759 243.5 C 759 228.31216799999999 804.2192352 216 860 216 C 915.7807648 216 961 228.31216799999999 961 243.5 C 961 258.687832 915.7807648 271 860 271 C 804.2192352 271 759 258.687832 759 243.5 Z"/></g><g transform="translate(-158,-14) scale(1,1)"><path fill="none" stroke="#000000" d="M 759 243.5 C 759 228.31216799999999 804.2192352 216 860 216 C 915.7807648 216 961 228.31216799999999 961 243.5 C 961 258.687832 915.7807648 271 860 271 C 804.2192352 271 759 258.687832 759 243.5 Z" stroke-miterlimit="10"/></g><g transform="translate(-158,-14) scale(1,1)"><g><path fill="none" stroke="none"/><text fill="#000000" stroke="none" font-family="Arial" font-size="13px" font-style="normal" font-weight="bold" text-decoration="none" x="798.21826171875" y="250.5">Accéder à un cocktail</text></g></g><g transform="translate(-158,-14) scale(1,1)"><path fill="#C0C0C0" stroke="none" d="M 1120 130.5 C 1120 106.4756112 1182.2324128 87 1259 87 C 1335.7675872 87 1398 106.4756112 1398 130.5 C 1398 154.5243888 1335.7675872 174 1259 174 C 1182.2324128 174 1120 154.5243888 1120 130.5 Z" opacity="0.2"/></g><g transform="translate(-158,-14) scale(1,1)"><path fill="#ffffff" stroke="none" d="M 1113 123.5 C 1113 99.4756112 1175.2324128 80 1252 80 C 1328.7675872 80 1391 99.4756112 1391 123.5 C 1391 147.5243888 1328.7675872 167 1252 167 C 1175.2324128 167 1113 147.5243888 1113 123.5 Z"/></g><g transform="translate(-158,-14) scale(1,1)"><path fill="none" stroke="#000000" d="M 1113 123.5 C 1113 99.4756112 1175.2324128 80 1252 80 C 1328.7675872 80 1391 99.4756112 1391 123.5 C 1391 147.5243888 1328.7675872 167 1252 167 C 1175.2324128 167 1113 147.5243888 1113 123.5 Z" stroke-miterlimit="10"/></g><g transform="translate(-158,-14) scale(1,1)"><g><path fill="none" stroke="none"/><text fill="#000000" stroke="none" font-family="Arial" font-size="13px" font-style="normal" font-weight="bold" text-decoration="none" x="1165.287841796875" y="130.5">Ajouter ou Enlever aux favoris</text></g></g><g transform="translate(-158,-14) scale(1,1)"><path fill="#C0C0C0" stroke="none" d="M 1067 310.5 C 1067 293.1030288 1153.185176 279 1259.5 279 C 1365.814824 279 1452 293.1030288 1452 310.5 C 1452 327.8969712 1365.814824 342 1259.5 342 C 1153.185176 342 1067 327.8969712 1067 310.5 Z" opacity="0.2"/></g><g transform="translate(-158,-14) scale(1,1)"><path fill="#ffffff" stroke="none" d="M 1060 303.5 C 1060 286.1030288 1146.185176 272 1252.5 272 C 1358.814824 272 1445 286.1030288 1445 303.5 C 1445 320.8969712 1358.814824 335 1252.5 335 C 1146.185176 335 1060 320.8969712 1060 303.5 Z"/></g><g transform="translate(-158,-14) scale(1,1)"><path fill="none" stroke="#000000" d="M 1060 303.5 C 1060 286.1030288 1146.185176 272 1252.5 272 C 1358.814824 272 1445 286.1030288 1445 303.5 C 1445 320.8969712 1358.814824 335 1252.5 335 C 1146.185176 335 1060 320.8969712 1060 303.5 Z" stroke-miterlimit="10"/></g><g transform="translate(-158,-14) scale(1,1)"><g><path fill="none" stroke="none"/><text fill="#000000" stroke="none" font-family="Arial" font-size="13px" font-style="normal" font-weight="bold" text-decoration="none" x="1132.04052734375" y="310.5">Supprimer un cocktail créé par l'utilisateur</text></g></g><g transform="translate(-158,-14) scale(1,1)"><path fill="#C0C0C0" stroke="none" d="M 1077 418.5 C 1077 403.312168 1158.4841664 391 1259 391 C 1359.5158336 391 1441 403.312168 1441 418.5 C 1441 433.687832 1359.5158336 446 1259 446 C 1158.4841664 446 1077 433.687832 1077 418.5 Z" opacity="0.2"/></g><g transform="translate(-158,-14) scale(1,1)"><path fill="#ffffff" stroke="none" d="M 1070 411.5 C 1070 396.312168 1151.4841664 384 1252 384 C 1352.5158336 384 1434 396.312168 1434 411.5 C 1434 426.687832 1352.5158336 439 1252 439 C 1151.4841664 439 1070 426.687832 1070 411.5 Z"/></g><g transform="translate(-158,-14) scale(1,1)"><path fill="none" stroke="#000000" d="M 1070 411.5 C 1070 396.312168 1151.4841664 384 1252 384 C 1352.5158336 384 1434 396.312168 1434 411.5 C 1434 426.687832 1352.5158336 439 1252 439 C 1151.4841664 439 1070 426.687832 1070 411.5 Z" stroke-miterlimit="10"/></g><g transform="translate(-158,-14) scale(1,1)"><g><path fill="none" stroke="none"/><text fill="#000000" stroke="none" font-family="Arial" font-size="13px" font-style="normal" font-weight="bold" text-decoration="none" x="1138.405517578125" y="418.5">Modifier un cocktail créé par l'utilisateur</text></g></g><g transform="translate(-158,-14) scale(1,1)"><path fill="#C0C0C0" stroke="none" d="M 487 408 C 487 398.6111584 535.129384 391 594.5 391 C 653.870616 391 702 398.6111584 702 408 C 702 417.3888416 653.870616 425 594.5 425 C 535.129384 425 487 417.3888416 487 408 Z" opacity="0.2"/></g><g transform="translate(-158,-14) scale(1,1)"><path fill="#ffffff" stroke="none" d="M 480 401 C 480 391.6111584 528.129384 384 587.5 384 C 646.870616 384 695 391.6111584 695 401 C 695 410.3888416 646.870616 418 587.5 418 C 528.129384 418 480 410.3888416 480 401 Z"/></g><g transform="translate(-158,-14) scale(1,1)"><path fill="none" stroke="#000000" d="M 480 401 C 480 391.6111584 528.129384 384 587.5 384 C 646.870616 384 695 391.6111584 695 401 C 695 410.3888416 646.870616 418 587.5 418 C 528.129384 418 480 410.3888416 480 401 Z" stroke-miterlimit="10"/></g><g transform="translate(-158,-14) scale(1,1)"><g><path fill="none" stroke="none"/><text fill="#000000" stroke="none" font-family="Arial" font-size="13px" font-style="normal" font-weight="bold" text-decoration="none" x="521.385986328125" y="408">Rechercher un cocktail</text></g></g><g transform="translate(-158,-14) scale(1,1)"><path fill="#C0C0C0" stroke="none" d="M 767 418.5 C 767 403.312168 811.9953776 391 867.5 391 C 923.0046224 391 968 403.312168 968 418.5 C 968 433.687832 923.0046224 446 867.5 446 C 811.9953776 446 767 433.687832 767 418.5 Z" opacity="0.2"/></g><g transform="translate(-158,-14) scale(1,1)"><path fill="#ffffff" stroke="none" d="M 760 411.5 C 760 396.312168 804.9953776 384 860.5 384 C 916.0046224 384 961 396.312168 961 411.5 C 961 426.687832 916.0046224 439 860.5 439 C 804.9953776 439 760 426.687832 760 411.5 Z"/></g><g transform="translate(-158,-14) scale(1,1)"><path fill="none" stroke="#000000" d="M 760 411.5 C 760 396.312168 804.9953776 384 860.5 384 C 916.0046224 384 961 396.312168 961 411.5 C 961 426.687832 916.0046224 439 860.5 439 C 804.9953776 439 760 426.687832 760 411.5 Z" stroke-miterlimit="10"/></g><g transform="translate(-158,-14) scale(1,1)"><g><path fill="none" stroke="none"/><text fill="#000000" stroke="none" font-family="Arial" font-size="13px" font-style="normal" font-weight="bold" text-decoration="none" x="799.076904296875" y="418.5">Choisir une catégorie</text></g></g><g transform="translate(-158,-14) scale(1,1)"><path fill="#C0C0C0" stroke="none" d="M 743 674.5 C 743 659.312168 798.7405424 647 867.5 647 C 936.2594576 647 992 659.312168 992 674.5 C 992 689.687832 936.2594576 702 867.5 702 C 798.7405424 702 743 689.687832 743 674.5 Z" opacity="0.2"/></g><g transform="translate(-158,-14) scale(1,1)"><path fill="#ffffff" stroke="none" d="M 736 667.5 C 736 652.312168 791.7405424 640 860.5 640 C 929.2594576 640 985 652.312168 985 667.5 C 985 682.687832 929.2594576 695 860.5 695 C 791.7405424 695 736 682.687832 736 667.5 Z"/></g><g transform="translate(-158,-14) scale(1,1)"><path fill="none" stroke="#000000" d="M 736 667.5 C 736 652.312168 791.7405424 640 860.5 640 C 929.2594576 640 985 652.312168 985 667.5 C 985 682.687832 929.2594576 695 860.5 695 C 791.7405424 695 736 682.687832 736 667.5 Z" stroke-miterlimit="10"/></g><g transform="translate(-158,-14) scale(1,1)"><g><path fill="none" stroke="none"/><text fill="#000000" stroke="none" font-family="Arial" font-size="13px" font-style="normal" font-weight="bold" text-decoration="none" x="783.17919921875" y="674.5">Donner un nom au cocktail</text></g></g><g transform="translate(-158,-14) scale(1,1)"><path fill="#C0C0C0" stroke="none" d="M 753 538.5 C 753 527.7304464 804.0395328 519 867 519 C 929.9604672 519 981 527.7304464 981 538.5 C 981 549.2695536 929.9604672 558 867 558 C 804.0395328 558 753 549.2695536 753 538.5 Z" opacity="0.2"/></g><g transform="translate(-158,-14) scale(1,1)"><path fill="#ffffff" stroke="none" d="M 746 531.5 C 746 520.7304464 797.0395328 512 860 512 C 922.9604672 512 974 520.7304464 974 531.5 C 974 542.2695536 922.9604672 551 860 551 C 797.0395328 551 746 542.2695536 746 531.5 Z"/></g><g transform="translate(-158,-14) scale(1,1)"><path fill="none" stroke="#000000" d="M 746 531.5 C 746 520.7304464 797.0395328 512 860 512 C 922.9604672 512 974 520.7304464 974 531.5 C 974 542.2695536 922.9604672 551 860 551 C 797.0395328 551 746 542.2695536 746 531.5 Z" stroke-miterlimit="10"/></g><g transform="translate(-158,-14) scale(1,1)"><g><path fill="none" stroke="none"/><text fill="#000000" stroke="none" font-family="Arial" font-size="13px" font-style="normal" font-weight="bold" text-decoration="none" x="790.28369140625" y="538.5">Remplir les informations</text></g></g><g transform="translate(-158,-14) scale(1,1)"><path fill="#C0C0C0" stroke="none" d="M 1126 520 C 1126 510.6111584 1185.7699792 503 1259.5 503 C 1333.2300208 503 1393 510.6111584 1393 520 C 1393 529.3888416 1333.2300208 537 1259.5 537 C 1185.7699792 537 1126 529.3888416 1126 520 Z" opacity="0.2"/></g><g transform="translate(-158,-14) scale(1,1)"><path fill="#ffffff" stroke="none" d="M 1119 513 C 1119 503.6111584 1178.7699792 496 1252.5 496 C 1326.2300208 496 1386 503.6111584 1386 513 C 1386 522.3888416 1326.2300208 530 1252.5 530 C 1178.7699792 530 1119 522.3888416 1119 513 Z"/></g><g transform="translate(-158,-14) scale(1,1)"><path fill="none" stroke="#000000" d="M 1119 513 C 1119 503.6111584 1178.7699792 496 1252.5 496 C 1326.2300208 496 1386 503.6111584 1386 513 C 1386 522.3888416 1326.2300208 530 1252.5 530 C 1178.7699792 530 1119 522.3888416 1119 513 Z" stroke-miterlimit="10"/></g><g transform="translate(-158,-14) scale(1,1)"><g><path fill="none" stroke="none"/><text fill="#000000" stroke="none" font-family="Arial" font-size="13px" font-style="normal" font-weight="bold" text-decoration="none" x="1168.320556640625" y="520">Remplir le détail de la recette</text></g></g><g transform="translate(-158,-14) scale(1,1)"><path fill="#C0C0C0" stroke="none" d="M 1156 608 C 1156 598.6111584 1202.1146656 591 1259 591 C 1315.8853344 591 1362 598.6111584 1362 608 C 1362 617.3888416 1315.8853344 625 1259 625 C 1202.1146656 625 1156 617.3888416 1156 608 Z" opacity="0.2"/></g><g transform="translate(-158,-14) scale(1,1)"><path fill="#ffffff" stroke="none" d="M 1149 601 C 1149 591.6111584 1195.1146656 584 1252 584 C 1308.8853344 584 1355 591.6111584 1355 601 C 1355 610.3888416 1308.8853344 618 1252 618 C 1195.1146656 618 1149 610.3888416 1149 601 Z"/></g><g transform="translate(-158,-14) scale(1,1)"><path fill="none" stroke="#000000" d="M 1149 601 C 1149 591.6111584 1195.1146656 584 1252 584 C 1308.8853344 584 1355 591.6111584 1355 601 C 1355 610.3888416 1308.8853344 618 1252 618 C 1195.1146656 618 1149 610.3888416 1149 601 Z" stroke-miterlimit="10"/></g><g transform="translate(-158,-14) scale(1,1)"><g><path fill="none" stroke="none"/><text fill="#000000" stroke="none" font-family="Arial" font-size="13px" font-style="normal" font-weight="bold" text-decoration="none" x="1189.504150390625" y="608">Remplir la description</text></g></g><g transform="translate(-158,-14) scale(1,1)"><path fill="#C0C0C0" stroke="none" d="M 1136 722.5 C 1136 702.8938896 1194.8745488 687 1267.5 687 C 1340.1254512 687 1399 702.8938896 1399 722.5 C 1399 742.1061104 1340.1254512 758 1267.5 758 C 1194.8745488 758 1136 742.1061104 1136 722.5 Z" opacity="0.2"/></g><g transform="translate(-158,-14) scale(1,1)"><path fill="#ffffff" stroke="none" d="M 1129 715.5 C 1129 695.8938896 1187.8745488 680 1260.5 680 C 1333.1254512 680 1392 695.8938896 1392 715.5 C 1392 735.1061104 1333.1254512 751 1260.5 751 C 1187.8745488 751 1129 735.1061104 1129 715.5 Z"/></g><g transform="translate(-158,-14) scale(1,1)"><path fill="none" stroke="#000000" d="M 1129 715.5 C 1129 695.8938896 1187.8745488 680 1260.5 680 C 1333.1254512 680 1392 695.8938896 1392 715.5 C 1392 735.1061104 1333.1254512 751 1260.5 751 C 1187.8745488 751 1129 735.1061104 1129 715.5 Z" stroke-miterlimit="10"/></g><g transform="translate(-158,-14) scale(1,1)"><g><path fill="none" stroke="none"/><text fill="#000000" stroke="none" font-family="Arial" font-size="13px" font-style="normal" font-weight="bold" text-decoration="none" x="1179.418212890625" y="722.5">Remplir la liste d'ingrédients</text></g></g><g transform="translate(-158,-14) scale(1,1)"><path fill="none" stroke="#000000" d="M 242 381 L 413 264" stroke-miterlimit="10"/></g><g transform="translate(-158,-14) scale(1,1)"><path fill="none" stroke="#000000" d="M 242 427 L 420 519" stroke-miterlimit="10"/></g><g transform="translate(-158,-14) scale(1,1)"><path fill="none" stroke="#000000" d="M 588 549 L 745 539" stroke-miterlimit="10" stroke-dasharray="3"/></g><g transform="translate(-158,-14) scale(1,1)"><path fill="none" stroke="#000000" d="M 735.1254573289123 543.8469997974898 L 745 539 L 734.590297490943 535.4449903413729" stroke-miterlimit="10"/></g><g transform="translate(-158,-14) scale(1,1)"><g><path fill="none" stroke="none"/><text fill="#000000" stroke="none" font-family="Arial" font-size="13px" font-style="normal" font-weight="normal" text-decoration="none" x="636.5" y="520.5">«include»</text></g></g><g transform="translate(-158,-14) scale(1,1)"><path fill="none" stroke="#000000" d="M 860 552 L 860 639" stroke-miterlimit="10" stroke-dasharray="3"/></g><g transform="translate(-158,-14) scale(1,1)"><path fill="none" stroke="#000000" d="M 855.790482243984 628.8373251423759 L 860 639 L 864.209517756016 628.8373251423759" stroke-miterlimit="10"/></g><g transform="translate(-158,-14) scale(1,1)"><g><path fill="none" stroke="none"/><text fill="#000000" stroke="none" font-family="Arial" font-size="13px" font-style="normal" font-weight="normal" text-decoration="none" x="861.5" y="600.5">«include»</text></g></g><g transform="translate(-158,-14) scale(1,1)"><path fill="none" stroke="#000000" d="M 906 552 L 1182 679" stroke-miterlimit="10" stroke-dasharray="3"/></g><g transform="translate(-158,-14) scale(1,1)"><path fill="none" stroke="#000000" d="M 1171.0081764816273 678.5759531382633 L 1182 679 L 1174.5274534640278 670.927760641078" stroke-miterlimit="10"/></g><g transform="translate(-158,-14) scale(1,1)"><g><path fill="none" stroke="none"/><text fill="#000000" stroke="none" font-family="Arial" font-size="13px" font-style="normal" font-weight="normal" text-decoration="none" x="1099.5" y="639.5">«include»</text></g></g><g transform="translate(-158,-14) scale(1,1)"><path fill="none" stroke="#000000" d="M 1151 583 L 975 552" stroke-miterlimit="10" stroke-dasharray="3"/></g><g transform="translate(-158,-14) scale(1,1)"><path fill="none" stroke="#000000" d="M 985.7388157370973 549.6171788643143 L 975 552 L 984.2783984130123 557.9085804462163" stroke-miterlimit="10"/></g><g transform="translate(-158,-14) scale(1,1)"><g><path fill="none" stroke="none"/><text fill="#000000" stroke="none" font-family="Arial" font-size="13px" font-style="normal" font-weight="normal" text-decoration="none" x="1023.5" y="580.5">«extend»</text></g></g><g transform="translate(-158,-14) scale(1,1)"><path fill="none" stroke="#000000" d="M 1118 519 L 975 526" stroke-miterlimit="10" stroke-dasharray="3"/></g><g transform="translate(-158,-14) scale(1,1)"><path fill="none" stroke="#000000" d="M 984.9447068977566 521.2986379933351 L 975 526 L 985.3563346400418 529.7076047285908" stroke-miterlimit="10"/></g><g transform="translate(-158,-14) scale(1,1)"><g><path fill="none" stroke="none"/><text fill="#000000" stroke="none" font-family="Arial" font-size="13px" font-style="normal" font-weight="normal" text-decoration="none" x="1020.5" y="539.5">«extend»</text></g></g><g transform="translate(-158,-14) scale(1,1)"><path fill="none" stroke="#000000" d="M 696 405 L 759 407" stroke-miterlimit="10" stroke-dasharray="3"/></g><g transform="translate(-158,-14) scale(1,1)"><path fill="none" stroke="#000000" d="M 748.7088741046816 410.88493601063226 L 759 407 L 748.976010495782 402.47013969096975" stroke-miterlimit="10"/></g><g transform="translate(-158,-14) scale(1,1)"><g><path fill="none" stroke="none"/><text fill="#000000" stroke="none" font-family="Arial" font-size="13px" font-style="normal" font-weight="normal" text-decoration="none" x="699.5" y="396.5">«include»</text></g></g><g transform="translate(-158,-14) scale(1,1)"><path fill="none" stroke="#000000" d="M 758 234 L 632 223" stroke-miterlimit="10" stroke-dasharray="3"/></g><g transform="translate(-158,-14) scale(1,1)"><path fill="none" stroke="#000000" d="M 642.4902721640109 219.6902885435466 L 632 223 L 641.7580619982936 228.07742316903554" stroke-miterlimit="10"/></g><g transform="translate(-158,-14) scale(1,1)"><g><path fill="none" stroke="none"/><text fill="#000000" stroke="none" font-family="Arial" font-size="13px" font-style="normal" font-weight="normal" text-decoration="none" x="669.5" y="244.5">«extend»</text></g></g><g transform="translate(-158,-14) scale(1,1)"><path fill="none" stroke="#000000" d="M 1112 166 L 951 215" stroke-miterlimit="10" stroke-dasharray="3"/></g><g transform="translate(-158,-14) scale(1,1)"><path fill="none" stroke="#000000" d="M 959.4967156000725 208.01388348139798 L 951 215 L 961.9480155830877 216.06815485416197" stroke-miterlimit="10"/></g><g transform="translate(-158,-14) scale(1,1)"><g><path fill="none" stroke="none"/><text fill="#000000" stroke="none" font-family="Arial" font-size="13px" font-style="normal" font-weight="normal" text-decoration="none" x="1016.5" y="205.5">«extend»</text></g></g><g transform="translate(-158,-14) scale(1,1)"><path fill="none" stroke="#000000" d="M 1059 273 L 962 259" stroke-miterlimit="10" stroke-dasharray="3"/></g><g transform="translate(-158,-14) scale(1,1)"><path fill="none" stroke="#000000" d="M 972.6597788220691 256.2853885241962 L 962 259 L 971.4571220738616 264.61808170820615" stroke-miterlimit="10"/></g><g transform="translate(-158,-14) scale(1,1)"><g><path fill="none" stroke="none"/><text fill="#000000" stroke="none" font-family="Arial" font-size="13px" font-style="normal" font-weight="normal" text-decoration="none" x="977.5" y="284.5">«extend»</text></g></g><g transform="translate(-158,-14) scale(1,1)"><path fill="none" stroke="#000000" d="M 578 383 L 518 264" stroke-miterlimit="10"/></g><g transform="translate(-158,-14) scale(1,1)"><path fill="#FFFFFF" stroke="none" d="M 534.6682637599162 278.35858569741 L 518 264 L 519.6331890203559 285.93929565012945"/></g><g transform="translate(-158,-14) scale(1,1)"><path fill="none" stroke="#000000" d="M 534.6682637599162 278.35858569741 L 518 264 L 519.6331890203559 285.93929565012945 L 534.6682637599162 278.35858569741" stroke-miterlimit="10"/></g><g transform="translate(-158,-14) scale(1,1)"><path fill="none" stroke="#000000" d="M 786 139 L 632 177" stroke-miterlimit="10"/></g><g transform="translate(-158,-14) scale(1,1)"><path fill="#FFFFFF" stroke="none" d="M 649.7165395676536 163.95683221959615 L 632 177 L 653.7503976531251 180.30457288177016"/></g><g transform="translate(-158,-14) scale(1,1)"><path fill="none" stroke="#000000" d="M 649.7165395676536 163.95683221959615 L 632 177 L 653.7503976531251 180.30457288177016 L 649.7165395676536 163.95683221959615" stroke-miterlimit="10"/></g><g transform="translate(-158,-14) scale(1,1)"><path fill="none" stroke="#000000" d="M 542 84 L 480 96 L 486 159" stroke-miterlimit="10"/></g><g transform="translate(-158,-14) scale(1,1)"><path fill="#FFFFFF" stroke="none" d="M 475.69186030031506 139.56440749728017 L 486 159 L 492.4540837719862 137.96800526188292"/></g><g transform="translate(-158,-14) scale(1,1)"><path fill="none" stroke="#000000" d="M 475.69186030031506 139.56440749728017 L 486 159 L 492.4540837719862 137.96800526188292 L 475.69186030031506 139.56440749728017" stroke-miterlimit="10"/></g><g transform="translate(-158,-14) scale(1,1)"><path fill="none" stroke="#000000" d="M 1187 383 L 928 272" stroke-miterlimit="10" stroke-dasharray="3"/></g><g transform="translate(-158,-14) scale(1,1)"><path fill="none" stroke="#000000" d="M 938.9991823688811 272.13411642738856 L 928 272 L 935.6827618052683 279.8724310758183" stroke-miterlimit="10"/></g><g transform="translate(-158,-14) scale(1,1)"><g><path fill="none" stroke="none"/><text fill="#000000" stroke="none" font-family="Arial" font-size="13px" font-style="normal" font-weight="normal" text-decoration="none" x="1018.5" y="348.5">«extend»</text></g></g></g></svg>